<svg width="272" height="278" viewBox="0 0 272 278" fill="none" xmlns="http://www.w3.org/2000/svg">
<g clip-path="url(#clip0_133_161)">
<path d="M188.157 34.1242L187.649 34.6573L222.477 67.8156L222.985 67.2825L188.157 34.1242Z" fill="#E6E6E6"/>
<path d="M223.04 63.687L222.305 63.7315L222.527 67.3541L218.897 67.3105L218.889 68.0468L223.31 68.0992L223.04 63.687Z" fill="#E6E6E6"/>
<path d="M191.745 33.8926L191.737 34.6289L188.108 34.5853L188.33 38.2079L187.594 38.2523L187.325 33.8397L191.745 33.8926Z" fill="#E6E6E6"/>
<path d="M205.317 55.0182C207.553 55.0182 209.365 53.2057 209.365 50.9699C209.365 48.734 207.553 46.9215 205.317 46.9215C203.081 46.9215 201.269 48.734 201.269 50.9699C201.269 53.2057 203.081 55.0182 205.317 55.0182Z" fill="#E6E6E6"/>
<path d="M84.2293 34.1242L49.4014 67.2825L49.909 67.8156L84.7369 34.6573L84.2293 34.1242Z" fill="#E6E6E6"/>
<path d="M49.0765 68.0992L53.4971 68.0468L53.4887 67.3105L49.8595 67.3541L50.0815 63.7315L49.3461 63.687L49.0765 68.0992Z" fill="#E6E6E6"/>
<path d="M85.061 33.8397L84.7919 38.2523L84.0565 38.2079L84.278 34.5853L80.6488 34.6289L80.6409 33.8926L85.061 33.8397Z" fill="#E6E6E6"/>
<path d="M67.0691 55.0182C69.305 55.0182 71.1175 53.2057 71.1175 50.9699C71.1175 48.734 69.305 46.9215 67.0691 46.9215C64.8333 46.9215 63.0208 48.734 63.0208 50.9699C63.0208 53.2057 64.8333 55.0182 67.0691 55.0182Z" fill="#E6E6E6"/>
<path d="M166.372 84.1915H105.278C104.4 84.1905 103.558 83.8412 102.937 83.2202C102.316 82.5993 101.967 81.7574 101.966 80.8792V3.59232C101.967 2.71415 102.316 1.87224 102.937 1.25129C103.558 0.630326 104.4 0.281029 105.278 0.280029H166.372C167.25 0.281029 168.092 0.630326 168.713 1.25129C169.334 1.87224 169.683 2.71415 169.684 3.59232V80.8792C169.683 81.7574 169.334 82.5993 168.713 83.2202C168.092 83.8412 167.25 84.1905 166.372 84.1915ZM105.278 1.0161C104.595 1.01686 103.94 1.28853 103.457 1.7715C102.974 2.25447 102.703 2.9093 102.702 3.59232V80.8792C102.703 81.5622 102.974 82.217 103.457 82.7C103.94 83.183 104.595 83.4546 105.278 83.4554H166.372C167.055 83.4546 167.71 83.183 168.193 82.7C168.676 82.217 168.947 81.5622 168.948 80.8792V3.59232C168.947 2.9093 168.676 2.25447 168.193 1.7715C167.71 1.28853 167.055 1.01686 166.372 1.0161H105.278Z" fill="#3F3D56"/>
<path d="M130.743 37.4299H117.295C116.856 37.4294 116.435 37.2548 116.125 36.9443C115.814 36.6338 115.639 36.2128 115.639 35.7738V19.9043C115.639 19.4652 115.814 19.0443 116.125 18.7338C116.435 18.4233 116.856 18.2487 117.295 18.2482H130.743C131.182 18.2487 131.603 18.4233 131.913 18.7338C132.224 19.0443 132.399 19.4652 132.399 19.9043V35.7737C132.399 36.2128 132.224 36.6338 131.913 36.9443C131.603 37.2548 131.182 37.4294 130.743 37.4299Z" fill="#FF9023"/>
<path d="M156.873 44.7905H143.425C142.986 44.79 142.565 44.6154 142.255 44.3049C141.944 43.9944 141.77 43.5734 141.769 43.1343V27.2649C141.77 26.8258 141.944 26.4049 142.255 26.0944C142.565 25.7839 142.986 25.6093 143.425 25.6088H156.873C157.312 25.6093 157.733 25.7839 158.044 26.0944C158.354 26.4049 158.529 26.8258 158.529 27.2649V43.1343C158.529 43.5734 158.354 43.9944 158.044 44.3049C157.733 44.6154 157.312 44.79 156.873 44.7905Z" fill="#CCCCCC"/>
<path d="M135.895 67.2406H122.447C122.008 67.2401 121.587 67.0654 121.277 66.755C120.966 66.4445 120.792 66.0235 120.791 65.5844V49.715C120.792 49.2759 120.966 48.8549 121.277 48.5445C121.587 48.234 122.008 48.0593 122.447 48.0588H135.895C136.334 48.0593 136.755 48.234 137.066 48.5445C137.376 48.8549 137.551 49.2759 137.552 49.715V65.5844C137.551 66.0235 137.376 66.4445 137.066 66.755C136.755 67.0654 136.334 67.2401 135.895 67.2406Z" fill="#FF9023"/>
<path d="M264.979 163.661H203.886C203.008 163.66 202.166 163.311 201.545 162.69C200.924 162.069 200.575 161.227 200.574 160.349V83.0622C200.575 82.184 200.924 81.3421 201.545 80.7211C202.166 80.1002 203.008 79.7509 203.886 79.7499H264.979C265.857 79.7509 266.699 80.1002 267.32 80.7211C267.941 81.3421 268.291 82.184 268.292 83.0622V160.349C268.291 161.227 267.941 162.069 267.32 162.69C266.699 163.311 265.857 163.66 264.979 163.661ZM203.886 80.4859C203.203 80.4867 202.548 80.7584 202.065 81.2414C201.582 81.7243 201.31 82.3791 201.31 83.0622V160.349C201.31 161.032 201.582 161.687 202.065 162.17C202.548 162.653 203.203 162.924 203.886 162.925H264.979C265.662 162.924 266.317 162.653 266.8 162.17C267.283 161.687 267.555 161.032 267.556 160.349V83.0622C267.555 82.3791 267.283 81.7243 266.8 81.2414C266.317 80.7584 265.662 80.4867 264.979 80.4859H203.886Z" fill="#3F3D56"/>
<path d="M244.921 96.8635H223.944C223.553 96.8635 223.179 96.7083 222.903 96.4323C222.627 96.1562 222.471 95.7818 222.471 95.3913C222.471 95.0009 222.627 94.6264 222.903 94.3504C223.179 94.0743 223.553 93.9192 223.944 93.9192H244.921C245.312 93.9192 245.686 94.0743 245.962 94.3504C246.239 94.6264 246.394 95.0009 246.394 95.3913C246.394 95.7818 246.239 96.1562 245.962 96.4323C245.686 96.7083 245.312 96.8635 244.921 96.8635Z" fill="#FF9023"/>
<path d="M255.226 110.849H213.639C213.445 110.849 213.254 110.811 213.075 110.737C212.896 110.664 212.733 110.555 212.596 110.418C212.459 110.282 212.351 110.119 212.276 109.94C212.202 109.762 212.164 109.57 212.164 109.377C212.164 109.183 212.202 108.991 212.276 108.813C212.351 108.634 212.459 108.471 212.596 108.335C212.733 108.198 212.896 108.09 213.075 108.016C213.254 107.942 213.445 107.904 213.639 107.904H255.226C255.42 107.904 255.612 107.942 255.791 108.016C255.969 108.09 256.132 108.198 256.269 108.335C256.406 108.471 256.515 108.634 256.589 108.813C256.663 108.991 256.701 109.183 256.701 109.377C256.701 109.57 256.663 109.762 256.589 109.94C256.515 110.119 256.406 110.282 256.269 110.418C256.132 110.555 255.969 110.664 255.791 110.737C255.612 110.811 255.42 110.849 255.226 110.849Z" fill="#CCCCCC"/>
<path d="M255.226 118.577H213.639C213.445 118.578 213.254 118.54 213.075 118.466C212.896 118.392 212.733 118.284 212.596 118.147C212.459 118.01 212.351 117.848 212.276 117.669C212.202 117.49 212.164 117.299 212.164 117.105C212.164 116.912 212.202 116.72 212.276 116.541C212.351 116.362 212.459 116.2 212.596 116.063C212.733 115.927 212.896 115.818 213.075 115.744C213.254 115.671 213.445 115.633 213.639 115.633H255.226C255.42 115.633 255.612 115.671 255.791 115.744C255.969 115.818 256.132 115.927 256.269 116.063C256.406 116.2 256.515 116.362 256.589 116.541C256.663 116.72 256.701 116.912 256.701 117.105C256.701 117.299 256.663 117.49 256.589 117.669C256.515 117.848 256.406 118.01 256.269 118.147C256.132 118.284 255.969 118.392 255.791 118.466C255.612 118.54 255.42 118.578 255.226 118.577Z" fill="#CCCCCC"/>
<path d="M255.226 126.306H213.639C213.445 126.306 213.254 126.269 213.075 126.195C212.896 126.121 212.733 126.013 212.596 125.876C212.459 125.739 212.351 125.577 212.276 125.398C212.202 125.219 212.164 125.027 212.164 124.834C212.164 124.64 212.202 124.449 212.276 124.27C212.351 124.091 212.459 123.929 212.596 123.792C212.733 123.655 212.896 123.547 213.075 123.473C213.254 123.399 213.445 123.361 213.639 123.362H255.226C255.42 123.361 255.612 123.399 255.791 123.473C255.969 123.547 256.132 123.655 256.269 123.792C256.406 123.929 256.515 124.091 256.589 124.27C256.663 124.449 256.701 124.64 256.701 124.834C256.701 125.027 256.663 125.219 256.589 125.398C256.515 125.577 256.406 125.739 256.269 125.876C256.132 126.013 255.969 126.121 255.791 126.195C255.612 126.269 255.42 126.306 255.226 126.306Z" fill="#CCCCCC"/>
<path d="M255.226 134.035H213.639C213.445 134.035 213.254 133.997 213.075 133.923C212.896 133.85 212.733 133.741 212.596 133.604C212.459 133.468 212.351 133.305 212.276 133.127C212.202 132.948 212.164 132.756 212.164 132.563C212.164 132.369 212.202 132.177 212.276 131.999C212.351 131.82 212.459 131.657 212.596 131.521C212.733 131.384 212.896 131.276 213.075 131.202C213.254 131.128 213.445 131.09 213.639 131.09H255.226C255.42 131.09 255.612 131.128 255.791 131.202C255.969 131.276 256.132 131.384 256.269 131.521C256.406 131.657 256.515 131.82 256.589 131.999C256.663 132.177 256.701 132.369 256.701 132.563C256.701 132.756 256.663 132.948 256.589 133.127C256.515 133.305 256.406 133.468 256.269 133.604C256.132 133.741 255.969 133.85 255.791 133.923C255.612 133.997 255.42 134.035 255.226 134.035Z" fill="#CCCCCC"/>
<path d="M255.226 141.763H213.639C213.445 141.764 213.254 141.726 213.075 141.652C212.896 141.578 212.733 141.47 212.596 141.333C212.459 141.196 212.351 141.034 212.276 140.855C212.202 140.677 212.164 140.485 212.164 140.291C212.164 140.098 212.202 139.906 212.276 139.727C212.351 139.549 212.459 139.386 212.596 139.249C212.733 139.113 212.896 139.004 213.075 138.931C213.254 138.857 213.445 138.819 213.639 138.819H255.226C255.42 138.819 255.612 138.857 255.791 138.931C255.969 139.004 256.132 139.113 256.269 139.249C256.406 139.386 256.515 139.549 256.589 139.727C256.663 139.906 256.701 140.098 256.701 140.291C256.701 140.485 256.663 140.677 256.589 140.855C256.515 141.034 256.406 141.196 256.269 141.333C256.132 141.47 255.969 141.578 255.791 141.652C255.612 141.726 255.42 141.764 255.226 141.763Z" fill="#CCCCCC"/>
<path d="M255.226 149.492H213.639C213.445 149.492 213.254 149.455 213.075 149.381C212.896 149.307 212.733 149.199 212.596 149.062C212.459 148.925 212.351 148.763 212.276 148.584C212.202 148.405 212.164 148.214 212.164 148.02C212.164 147.826 212.202 147.635 212.276 147.456C212.351 147.277 212.459 147.115 212.596 146.978C212.733 146.841 212.896 146.733 213.075 146.659C213.254 146.585 213.445 146.548 213.639 146.548H255.226C255.42 146.548 255.612 146.585 255.791 146.659C255.969 146.733 256.132 146.841 256.269 146.978C256.406 147.115 256.515 147.277 256.589 147.456C256.663 147.635 256.701 147.826 256.701 148.02C256.701 148.214 256.663 148.405 256.589 148.584C256.515 148.763 256.406 148.925 256.269 149.062C256.132 149.199 255.969 149.307 255.791 149.381C255.612 149.455 255.42 149.492 255.226 149.492Z" fill="#CCCCCC"/>
<path d="M67.7641 163.661H6.67069C5.79252 163.66 4.95061 163.311 4.32965 162.69C3.70869 162.069 3.3594 161.227 3.3584 160.349V83.0622C3.3594 82.184 3.70869 81.3421 4.32965 80.7211C4.95061 80.1002 5.79252 79.7509 6.67069 79.7499H67.7641C68.6423 79.7509 69.4842 80.1002 70.1051 80.7211C70.7261 81.3421 71.0754 82.184 71.0764 83.0622V160.349C71.0754 161.227 70.7261 162.069 70.1051 162.69C69.4842 163.311 68.6423 163.66 67.7641 163.661ZM6.67069 80.4859C5.98767 80.4867 5.33284 80.7584 4.84987 81.2414C4.3669 81.7243 4.09523 82.3791 4.09446 83.0622V160.349C4.09523 161.032 4.3669 161.687 4.84987 162.17C5.33284 162.653 5.98767 162.924 6.67069 162.925H67.7641C68.4471 162.924 69.102 162.653 69.5849 162.17C70.0679 161.687 70.3396 161.032 70.3403 160.349V83.0622C70.3396 82.3791 70.0679 81.7243 69.5849 81.2414C69.102 80.7584 68.4471 80.4867 67.7641 80.4859H6.67069Z" fill="#3F3D56"/>
<path d="M58.075 97.9974H39.6734C39.2829 97.9974 38.9085 97.8423 38.6324 97.5662C38.3563 97.2901 38.2012 96.9157 38.2012 96.5252C38.2012 96.1348 38.3563 95.7604 38.6324 95.4843C38.9085 95.2082 39.2829 95.0531 39.6734 95.0531H58.075C58.4654 95.0531 58.8399 95.2082 59.116 95.4843C59.392 95.7604 59.5471 96.1348 59.5471 96.5252C59.5471 96.9157 59.392 97.2901 59.116 97.5662C58.8399 97.8423 58.4654 97.9974 58.075 97.9974Z" fill="#3F3D56"/>
<path d="M58.075 105.726H39.6734C39.2829 105.726 38.9085 105.571 38.6324 105.295C38.3563 105.019 38.2012 104.644 38.2012 104.254C38.2012 103.864 38.3563 103.489 38.6324 103.213C38.9085 102.937 39.2829 102.782 39.6734 102.782H58.075C58.4654 102.782 58.8399 102.937 59.116 103.213C59.392 103.489 59.5471 103.864 59.5471 104.254C59.5471 104.644 59.392 105.019 59.116 105.295C58.8399 105.571 58.4654 105.726 58.075 105.726Z" fill="#3F3D56"/>
<path d="M30.2314 110.127H16.7835C16.3445 110.126 15.9235 109.952 15.613 109.641C15.3025 109.331 15.1279 108.91 15.1274 108.471V92.6012C15.1279 92.1621 15.3025 91.7412 15.613 91.4307C15.9235 91.1202 16.3445 90.9456 16.7835 90.9451H30.2314C30.6705 90.9456 31.0915 91.1202 31.402 91.4307C31.7125 91.7412 31.8871 92.1621 31.8876 92.6012V108.471C31.8871 108.91 31.7125 109.331 31.402 109.641C31.0915 109.952 30.6705 110.126 30.2314 110.127Z" fill="#FF9023"/>
<path d="M57.9475 121.551H16.3598C16.1663 121.552 15.9746 121.514 15.7957 121.44C15.6168 121.366 15.4542 121.258 15.3172 121.121C15.1802 120.984 15.0716 120.822 14.9974 120.643C14.9233 120.464 14.8851 120.273 14.8851 120.079C14.8851 119.886 14.9233 119.694 14.9974 119.515C15.0716 119.337 15.1802 119.174 15.3172 119.037C15.4542 118.901 15.6168 118.792 15.7957 118.718C15.9746 118.645 16.1663 118.607 16.3598 118.607H57.9475C58.141 118.607 58.3327 118.645 58.5116 118.718C58.6905 118.792 58.8531 118.901 58.9901 119.037C59.1271 119.174 59.2357 119.337 59.3099 119.515C59.384 119.694 59.4222 119.886 59.4222 120.079C59.4222 120.273 59.384 120.464 59.3099 120.643C59.2357 120.822 59.1271 120.984 58.9901 121.121C58.8531 121.258 58.6905 121.366 58.5116 121.44C58.3327 121.514 58.141 121.552 57.9475 121.551Z" fill="#CCCCCC"/>
<path d="M57.9475 129.28H16.3598C16.1663 129.281 15.9746 129.243 15.7957 129.169C15.6168 129.095 15.4542 128.987 15.3172 128.85C15.1802 128.713 15.0716 128.551 14.9974 128.372C14.9233 128.193 14.8851 128.002 14.8851 127.808C14.8851 127.615 14.9233 127.423 14.9974 127.244C15.0716 127.065 15.1802 126.903 15.3172 126.766C15.4542 126.629 15.6168 126.521 15.7957 126.447C15.9746 126.373 16.1663 126.336 16.3598 126.336H57.9475C58.141 126.336 58.3327 126.373 58.5116 126.447C58.6905 126.521 58.8531 126.629 58.9901 126.766C59.1271 126.903 59.2357 127.065 59.3099 127.244C59.384 127.423 59.4222 127.615 59.4222 127.808C59.4222 128.002 59.384 128.193 59.3099 128.372C59.2357 128.551 59.1271 128.713 58.9901 128.85C58.8531 128.987 58.6905 129.095 58.5116 129.169C58.3327 129.243 58.141 129.281 57.9475 129.28Z" fill="#CCCCCC"/>
<path d="M57.9475 137.009H16.3598C16.1663 137.009 15.9746 136.971 15.7957 136.898C15.6168 136.824 15.4542 136.715 15.3172 136.579C15.1802 136.442 15.0716 136.279 14.9974 136.101C14.9233 135.922 14.8851 135.73 14.8851 135.537C14.8851 135.343 14.9233 135.152 14.9974 134.973C15.0716 134.794 15.1802 134.632 15.3172 134.495C15.4542 134.358 15.6168 134.25 15.7957 134.176C15.9746 134.102 16.1663 134.064 16.3598 134.065H57.9475C58.141 134.064 58.3327 134.102 58.5116 134.176C58.6905 134.25 58.8531 134.358 58.9901 134.495C59.1271 134.632 59.2357 134.794 59.3099 134.973C59.384 135.152 59.4222 135.343 59.4222 135.537C59.4222 135.73 59.384 135.922 59.3099 136.101C59.2357 136.279 59.1271 136.442 58.9901 136.579C58.8531 136.715 58.6905 136.824 58.5116 136.898C58.3327 136.971 58.141 137.009 57.9475 137.009Z" fill="#CCCCCC"/>
<path d="M57.9475 144.737H16.3598C16.1663 144.738 15.9746 144.7 15.7957 144.626C15.6168 144.552 15.4542 144.444 15.3172 144.307C15.1802 144.17 15.0716 144.008 14.9974 143.829C14.9233 143.651 14.8851 143.459 14.8851 143.265C14.8851 143.072 14.9233 142.88 14.9974 142.701C15.0716 142.523 15.1802 142.36 15.3172 142.223C15.4542 142.087 15.6168 141.978 15.7957 141.905C15.9746 141.831 16.1663 141.793 16.3598 141.793H57.9475C58.141 141.793 58.3327 141.831 58.5116 141.905C58.6905 141.978 58.8531 142.087 58.9901 142.223C59.1271 142.36 59.2357 142.523 59.3099 142.701C59.384 142.88 59.4222 143.072 59.4222 143.265C59.4222 143.459 59.384 143.651 59.3099 143.829C59.2357 144.008 59.1271 144.17 58.9901 144.307C58.8531 144.444 58.6905 144.552 58.5116 144.626C58.3327 144.7 58.141 144.738 57.9475 144.737Z" fill="#CCCCCC"/>
<path d="M57.9475 152.466H16.3598C16.1663 152.467 15.9746 152.429 15.7957 152.355C15.6168 152.281 15.4542 152.173 15.3172 152.036C15.1802 151.899 15.0716 151.737 14.9974 151.558C14.9233 151.379 14.8851 151.188 14.8851 150.994C14.8851 150.801 14.9233 150.609 14.9974 150.43C15.0716 150.251 15.1802 150.089 15.3172 149.952C15.4542 149.816 15.6168 149.707 15.7957 149.633C15.9746 149.559 16.1663 149.522 16.3598 149.522H57.9475C58.141 149.522 58.3327 149.559 58.5116 149.633C58.6905 149.707 58.8531 149.816 58.9901 149.952C59.1271 150.089 59.2357 150.251 59.3099 150.43C59.384 150.609 59.4222 150.801 59.4222 150.994C59.4222 151.188 59.384 151.379 59.3099 151.558C59.2357 151.737 59.1271 151.899 58.9901 152.036C58.8531 152.173 58.6905 152.281 58.5116 152.355C58.3327 152.429 58.141 152.467 57.9475 152.466Z" fill="#CCCCCC"/>
<path d="M90.86 208.456V192.587C90.8605 192.148 91.0351 191.727 91.3456 191.416C91.6561 191.106 92.077 190.931 92.5161 190.931H105.964C106.403 190.931 106.824 191.106 107.135 191.416C107.445 191.727 107.62 192.148 107.62 192.587V208.456C107.62 208.895 107.445 209.316 107.135 209.627C106.824 209.937 106.403 210.112 105.964 210.113H92.5161C92.077 210.112 91.6561 209.937 91.3456 209.627C91.0351 209.316 90.8605 208.895 90.86 208.456Z" fill="#E6E6E6"/>
<path d="M95.7042 203.172V187.302C95.7046 186.863 95.8793 186.442 96.1898 186.132C96.5003 185.821 96.9212 185.647 97.3603 185.646H110.808C111.247 185.647 111.668 185.821 111.979 186.132C112.289 186.442 112.464 186.863 112.464 187.302V203.172C112.464 203.611 112.289 204.032 111.979 204.342C111.668 204.653 111.247 204.827 110.808 204.828H97.3603C96.9212 204.827 96.5003 204.653 96.1898 204.342C95.8793 204.032 95.7046 203.611 95.7042 203.172Z" fill="#FF9023"/>
<path d="M155.988 198.094C155.482 197.802 155.046 197.402 154.711 196.923C154.376 196.444 154.15 195.897 154.05 195.321C153.949 194.746 153.976 194.155 154.128 193.591C154.281 193.027 154.555 192.503 154.931 192.056L150.763 161.587L159.446 162.013L160.809 191.732C161.518 192.415 161.952 193.334 162.028 194.315C162.105 195.296 161.819 196.271 161.224 197.055C160.63 197.839 159.768 198.378 158.803 198.57C157.838 198.761 156.836 198.592 155.988 198.094Z" fill="#A0616A"/>
<path d="M160.638 162.419C160.46 162.628 160.232 162.79 159.975 162.888L152.172 165.866C151.78 166.016 151.345 166.009 150.958 165.848C150.571 165.687 150.26 165.384 150.089 165.001L143.177 149.466C142.513 148.025 142.4 146.391 142.859 144.872C143.199 143.789 143.824 142.816 144.67 142.058C145.516 141.3 146.55 140.784 147.664 140.565C148.521 140.388 149.407 140.401 150.258 140.601C151.279 140.829 152.227 141.307 153.016 141.993C153.805 142.679 154.411 143.551 154.778 144.53L160.924 160.776C161.027 161.05 161.055 161.347 161.005 161.636C160.955 161.925 160.828 162.195 160.638 162.419Z" fill="#CCCCCC"/>
<path d="M119.974 272.462H114.575L112.618 251.539L119.975 251.638L119.974 272.462Z" fill="#A0616A"/>
<path d="M110.719 270.919H121.131V277.475H104.163C104.163 276.614 104.333 275.762 104.662 274.966C104.992 274.171 105.474 273.448 106.083 272.839C106.692 272.23 107.415 271.748 108.21 271.418C109.006 271.089 109.858 270.919 110.719 270.919Z" fill="#2F2E41"/>
<path d="M145.076 272.462H139.677L137.109 251.637L145.077 251.638L145.076 272.462Z" fill="#A0616A"/>
<path d="M135.821 270.919H146.233V277.475H129.265C129.265 276.614 129.434 275.762 129.764 274.966C130.093 274.171 130.576 273.448 131.185 272.839C131.794 272.23 132.516 271.748 133.312 271.418C134.107 271.089 134.96 270.919 135.821 270.919Z" fill="#2F2E41"/>
<path d="M145.755 265.053L137.276 264.425C136.793 264.389 136.341 264.177 136.003 263.831C135.666 263.485 135.466 263.027 135.442 262.544L133.552 223.469C133.534 223.094 133.379 222.738 133.117 222.469C132.856 222.2 132.505 222.036 132.131 222.007C131.756 221.978 131.384 222.087 131.084 222.313C130.785 222.539 130.578 222.866 130.502 223.234L122.614 261.727C122.517 262.2 122.25 262.622 121.863 262.912C121.476 263.203 120.997 263.342 120.515 263.304L112.85 262.691C112.587 262.67 112.331 262.597 112.097 262.476C111.863 262.354 111.656 262.188 111.487 261.986C111.318 261.783 111.191 261.549 111.114 261.297C111.036 261.046 111.01 260.781 111.036 260.519L118.147 189.407C118.175 189.129 118.261 188.86 118.4 188.618C118.539 188.376 118.728 188.166 118.954 188.002C119.18 187.837 119.438 187.723 119.711 187.665C119.985 187.608 120.267 187.609 120.54 187.668L147.582 193.547C148.03 193.645 148.43 193.895 148.714 194.255C148.999 194.615 149.15 195.062 149.142 195.52L147.883 263.114C147.873 263.632 147.661 264.126 147.291 264.489C146.922 264.853 146.424 265.057 145.906 265.058C145.856 265.058 145.806 265.056 145.755 265.053Z" fill="#2F2E41"/>
<path d="M138.337 129.95C144.31 129.95 149.153 125.107 149.153 119.133C149.153 113.16 144.31 108.317 138.337 108.317C132.363 108.317 127.52 113.16 127.52 119.133C127.52 125.107 132.363 129.95 138.337 129.95Z" fill="#A0616A"/>
<path d="M121.555 194.891C120.515 193.958 119.689 192.812 119.135 191.529C118.58 190.247 118.31 188.86 118.343 187.463C118.343 171.918 131.799 137.186 132.221 136.102C132.262 135.841 132.617 135.729 134.48 134.47C136.343 133.211 139.031 133.017 142.468 133.895C142.817 133.985 143.135 134.168 143.388 134.426C143.64 134.684 143.817 135.005 143.899 135.357L144.538 136.28C144.594 136.515 144.704 136.733 144.859 136.917C145.014 137.101 145.21 137.246 145.432 137.34C148.203 138.508 157.013 143.892 154.011 164.156C151.223 182.979 150.091 194.049 149.734 197.935C149.692 198.396 149.489 198.828 149.162 199.155C148.834 199.482 148.402 199.684 147.941 199.725C146.582 199.847 144.25 200.009 141.472 200.009C135.033 200.009 126.201 199.14 121.555 194.891Z" fill="#CCCCCC"/>
<path d="M108.63 189.132C108.373 188.607 108.234 188.032 108.223 187.448C108.212 186.864 108.329 186.284 108.566 185.75C108.803 185.216 109.155 184.74 109.596 184.356C110.037 183.973 110.556 183.69 111.118 183.529L124.635 155.906L131.607 161.099L116.179 186.536C116.387 187.498 116.235 188.503 115.752 189.36C115.269 190.217 114.488 190.867 113.558 191.187C112.627 191.507 111.612 191.474 110.703 191.096C109.795 190.717 109.058 190.018 108.63 189.132Z" fill="#A0616A"/>
<path d="M132.371 162.1C132.106 162.175 131.827 162.181 131.559 162.12L123.42 160.244C123.011 160.15 122.654 159.903 122.422 159.554C122.19 159.204 122.101 158.779 122.173 158.366L125.089 141.615C125.341 140.048 126.158 138.628 127.385 137.623C128.271 136.912 129.332 136.453 130.457 136.295C131.582 136.137 132.728 136.285 133.776 136.724C134.586 137.055 135.314 137.558 135.909 138.199C136.63 138.957 137.15 139.882 137.423 140.892C137.696 141.901 137.714 142.963 137.473 143.98L133.524 160.895C133.457 161.18 133.314 161.443 133.112 161.654C132.909 161.866 132.653 162.02 132.371 162.1Z" fill="#CCCCCC"/>
<path d="M135.804 128.906C135.278 128.369 134.889 127.712 134.671 126.993C134.454 126.273 134.413 125.511 134.554 124.772C134.931 122.8 135.153 121.509 135.195 121.039C135.338 119.433 133.714 118.133 132.107 117.926C132.045 117.918 131.993 117.912 131.95 117.909C131.99 117.949 132.034 117.99 132.073 118.026C132.378 118.313 132.758 118.67 132.668 119.038C132.613 119.26 132.411 119.417 132.048 119.518C129.535 120.222 127.6 119.576 125.958 117.485C125.496 116.891 125.179 116.198 125.031 115.461C124.442 112.574 126.01 110.113 127.429 108.557C128.599 107.275 130.495 105.717 132.887 105.584C134.747 105.48 136.959 106.55 137.621 108.479C137.933 108.016 138.348 107.633 138.835 107.359C139.321 107.084 139.864 106.927 140.422 106.9C141.692 106.872 142.941 107.22 144.015 107.899C149.259 110.903 151.513 118.06 148.937 123.527C147.316 126.966 143.804 129.526 139.773 130.209C139.52 130.252 139.265 130.273 139.008 130.273C138.41 130.272 137.818 130.151 137.267 129.916C136.717 129.681 136.219 129.337 135.804 128.906Z" fill="#2F2E41"/>
<path d="M85.0838 277.72H170.958C171.075 277.72 171.187 277.674 171.269 277.591C171.352 277.508 171.398 277.396 171.398 277.28C171.398 277.163 171.352 277.051 171.269 276.968C171.187 276.886 171.075 276.839 170.958 276.839H85.0838C84.967 276.839 84.8549 276.886 84.7723 276.968C84.6898 277.051 84.6434 277.163 84.6434 277.28C84.6434 277.396 84.6898 277.508 84.7723 277.591C84.8549 277.674 84.967 277.72 85.0838 277.72Z" fill="#3F3D56"/>
</g>
<defs>
<clipPath id="clip0_133_161">
<rect width="264.933" height="277.44" fill="white" transform="translate(3.3584 0.280029)"/>
</clipPath>
</defs>
</svg>
