<svg width="428" height="284" viewBox="0 0 428 284" fill="none" xmlns="http://www.w3.org/2000/svg">
<g clip-path="url(#clip0_133_226)">
<path d="M378.478 271.255L374.76 272.445L368.404 258.671L373.891 256.915L378.478 271.255Z" fill="#FFB6B6"/>
<path d="M380.578 274.556L368.591 278.39L368.542 278.238C368.147 277.001 368.259 275.657 368.854 274.502C369.449 273.347 370.478 272.476 371.716 272.08L373.374 269.718L377.991 270.073L379.038 269.738L380.578 274.556Z" fill="#2F2E41"/>
<path d="M343.229 274.963H339.326L337.469 259.908H343.229L343.229 274.963Z" fill="#FFB6B6"/>
<path d="M344.224 278.747L331.639 278.747V278.587C331.639 277.288 332.155 276.042 333.073 275.123C333.992 274.205 335.238 273.689 336.537 273.689L338.837 271.945L343.126 273.689L344.225 273.689L344.224 278.747Z" fill="#2F2E41"/>
<path d="M324.586 119.377C324.293 119.742 324.084 120.167 323.973 120.622C323.862 121.077 323.853 121.55 323.945 122.009C324.037 122.468 324.228 122.901 324.506 123.278C324.783 123.655 325.14 123.967 325.551 124.191L323.678 135.414L329.083 133.015L330.032 122.726C330.363 122.01 330.42 121.199 330.192 120.444C329.964 119.69 329.468 119.045 328.796 118.632C328.125 118.219 327.326 118.067 326.55 118.205C325.774 118.342 325.075 118.759 324.586 119.377Z" fill="#FFB6B6"/>
<path d="M373.857 212.474C373.857 212.474 374.767 200.619 371.54 198.417C368.314 196.215 341.711 195.106 341.711 195.106L340.059 197.279C340.059 197.279 339.909 198.293 337.404 206.558L336.384 252.692C336.282 257.19 335.498 262.841 337.377 263.996L338.29 268.561H343.312L346.086 260.886C347.282 258.955 347.791 256.677 347.532 254.42L349.046 247.644C348.941 247.538 348.866 247.404 348.831 247.258C348.66 246.248 348.887 245.211 349.464 244.365C349.598 244.168 349.745 243.98 349.905 243.803L355.456 218.976L362.942 248.018L367.563 258.333C367.109 259.415 367.41 260.394 368.238 261.303C367.931 262.149 369.26 262.743 369.832 263.836L371.616 267.192L376.638 264.453L377.095 261.713C377.399 260.901 376.581 260.363 375.979 258.676C377.103 257.482 377.042 256.319 375.958 255.183L374.06 246.997L374.038 243.244L374.014 239.233L373.857 212.474Z" fill="#2F2E41"/>
<path d="M352.86 141.989C357.678 141.989 361.583 138.083 361.583 133.265C361.583 128.447 357.678 124.542 352.86 124.542C348.042 124.542 344.136 128.447 344.136 133.265C344.136 138.083 348.042 141.989 352.86 141.989Z" fill="#FFB6B6"/>
<path d="M361.636 134.631L361.492 134.343C361.269 133.898 359.424 130.193 359.193 129.241L356.871 129.514L350.826 129.515L351.666 128.255L349.445 128.544C348.633 128.643 347.857 128.936 347.182 129.397C346.768 129.673 346.418 130.034 346.155 130.456C345.362 131.814 344.15 134.036 344.138 134.059L344.022 134.271L343.015 132.577C343.002 132.511 341.753 126.001 345.931 123.793C346.526 122.63 347.448 121.665 348.583 121.017C349.718 120.369 351.017 120.067 352.321 120.146C352.798 119.602 353.47 119.268 354.192 119.216C355.183 119.164 356.211 119.685 357.244 120.769C358.616 122.21 360.496 124.183 361.632 126.374L361.946 126.821C362.391 127.462 362.612 128.232 362.573 129.011C362.815 130.254 362.729 131.538 362.324 132.739L361.636 134.631Z" fill="#2F2E41"/>
<path d="M373.816 149.867L364.334 147.212L359.507 143.631L350.024 145.143L349.983 145.197C348.323 147.354 345.763 149.484 343.043 149.569C342.343 149.592 341.647 149.692 340.969 149.867L340.059 166.512V181.394C340.201 181.442 340.328 181.526 340.429 181.637C340.529 181.748 340.599 181.884 340.632 182.03C340.899 183.547 340.874 185.102 340.558 186.609C340.446 187.135 340.278 187.648 340.059 188.138C340.324 188.686 340.461 189.287 340.461 189.895C340.461 190.504 340.324 191.104 340.059 191.652C339.248 192.425 339.353 193.267 340.059 194.154V197.279C355.45 210.12 371.501 199.125 371.501 199.125L370.986 174.682L373.816 149.867Z" fill="#3F3D56"/>
<path d="M343.096 152.153L340.969 149.867L329.249 148.539L330.349 130.538L323.959 125.979L321.065 141.6C320.07 142.461 319.885 143.309 320.594 144.143C319.797 145.736 319.592 147.032 319.863 148.088L319.264 151.322L340.951 166.512L343.096 152.153Z" fill="#3F3D56"/>
<path d="M372.086 211.014C371.834 210.62 371.671 210.175 371.609 209.711C371.547 209.247 371.588 208.775 371.728 208.328C371.869 207.882 372.105 207.472 372.421 207.126C372.737 206.781 373.125 206.509 373.557 206.33L372.889 194.972L378.008 197.931L377.858 208.264C378.11 209.01 378.081 209.823 377.774 210.549C377.467 211.275 376.905 211.863 376.193 212.202C375.482 212.541 374.671 212.608 373.914 212.389C373.157 212.17 372.506 211.68 372.086 211.014Z" fill="#FFB6B6"/>
<path d="M370.254 152.707L373.816 149.867C373.816 149.867 377.459 151.876 378.567 155.479C379.676 159.081 381.616 179.588 381.616 179.588L381.915 187.223C382.298 188.434 382.198 189.515 381.284 190.376C382.657 191.795 382.452 192.978 380.577 193.909L378.633 205.914L372.53 204.647L373.302 180.973L368.314 165.732L370.254 152.707Z" fill="#3F3D56"/>
<path d="M126.459 58.6673H125.21V24.4462C125.21 21.8452 124.698 19.2697 123.702 16.8667C122.707 14.4637 121.248 12.2803 119.409 10.4411C117.57 8.60195 115.386 7.14303 112.983 6.14768C110.58 5.15232 108.005 4.64002 105.404 4.64001H32.9019C27.6489 4.64 22.6111 6.72671 18.8967 10.4411C15.1824 14.1555 13.0956 19.1932 13.0956 24.4462V212.186C13.0956 217.438 15.1823 222.476 18.8967 226.191C22.6111 229.905 27.6489 231.992 32.9018 231.992H105.404C108.005 231.992 110.58 231.479 112.983 230.484C115.386 229.489 117.57 228.03 119.409 226.191C121.248 224.352 122.707 222.168 123.702 219.765C124.698 217.362 125.21 214.787 125.21 212.186V83.0264H126.459V58.6673Z" fill="#3F3D56"/>
<path d="M106.203 9.79287H96.739C97.1742 10.8599 97.3404 12.0176 97.2228 13.1639C97.1052 14.3103 96.7075 15.4101 96.0647 16.3665C95.4219 17.323 94.5538 18.1067 93.5368 18.6486C92.5198 19.1905 91.3852 19.474 90.2328 19.474H48.6974C47.545 19.474 46.4103 19.1905 45.3933 18.6486C44.3763 18.1067 43.5082 17.323 42.8654 16.3665C42.2227 15.4101 41.825 14.3102 41.7074 13.1639C41.5898 12.0175 41.7559 10.8599 42.1912 9.79285H33.3518C29.429 9.79284 25.6669 11.3512 22.893 14.125C20.1191 16.8989 18.5608 20.6611 18.5608 24.5839V212.048C18.5608 213.99 18.9434 215.914 19.6867 217.708C20.43 219.503 21.5195 221.133 22.893 222.507C24.2664 223.88 25.897 224.97 27.6915 225.713C29.4861 226.456 31.4094 226.839 33.3518 226.839H106.203C108.145 226.839 110.069 226.456 111.863 225.713C113.658 224.97 115.288 223.88 116.662 222.507C118.035 221.133 119.125 219.503 119.868 217.708C120.611 215.914 120.994 213.99 120.994 212.048V24.5839C120.994 22.6415 120.611 20.7182 119.868 18.9236C119.125 17.1291 118.035 15.4985 116.662 14.1251C115.288 12.7516 113.658 11.6621 111.863 10.9188C110.069 10.1754 108.145 9.79287 106.203 9.79287Z" fill="white"/>
<path d="M105.502 80.0051C105.508 84.2635 104.748 88.4883 103.26 92.4783C102.585 94.3059 101.756 96.0731 100.783 97.7611C97.6539 103.221 93.1391 107.757 87.6948 110.912C82.2505 114.067 76.0696 115.728 69.7773 115.728C63.4849 115.728 57.304 114.067 51.8597 110.912C46.4154 107.757 41.9007 103.221 38.7719 97.7611C38.4552 97.2121 38.1549 96.6548 37.8709 96.0894C35.4425 91.2721 34.1364 85.9675 34.0508 80.5734C33.9652 75.1794 35.1022 69.836 37.3765 64.9441C39.6508 60.0522 43.0034 55.7388 47.1827 52.3276C51.3621 48.9164 56.2596 46.4959 61.508 45.2478C66.7563 43.9996 72.2192 43.9561 77.4867 45.1207C82.7543 46.2852 87.6897 48.6275 91.9228 51.9718C96.1558 55.316 99.5766 59.5755 101.928 64.4306C104.28 69.2857 105.502 74.6103 105.502 80.0051Z" fill="#F1F1F1"/>
<path d="M71.6346 86.0363C75.4067 86.0363 78.4645 82.9784 78.4645 79.2064C78.4645 75.4343 75.4067 72.3765 71.6346 72.3765C67.8626 72.3765 64.8047 75.4343 64.8047 79.2064C64.8047 82.9784 67.8626 86.0363 71.6346 86.0363Z" fill="#FF6582"/>
<path d="M37.871 96.0894C40.8802 92.8373 44.903 87.6742 48.6759 91.4049C50.5695 93.1647 53.5329 97.5254 56.3696 94.6746L78.5216 72.5226C78.9386 72.1109 79.4337 71.7867 79.9778 71.569C80.5219 71.3513 81.1041 71.2446 81.69 71.2551C82.2759 71.2656 82.8539 71.3931 83.3898 71.6301C83.9258 71.8671 84.409 72.2088 84.811 72.6352L103.26 92.4784C102.585 94.3059 101.756 96.0731 100.783 97.7612H38.772L37.871 96.0894Z" fill="#FF9023"/>
<path d="M86.5398 152.552C86.2954 152.552 86.0611 152.65 85.8885 152.823C85.7159 152.996 85.6189 153.23 85.6189 153.474C85.6189 153.719 85.7159 153.953 85.8885 154.126C86.0611 154.299 86.2954 154.397 86.5398 154.397H96.2247C96.4695 154.397 96.7042 154.3 96.8773 154.127C97.0504 153.954 97.1476 153.719 97.1476 153.474C97.1476 153.23 97.0504 152.995 96.8773 152.822C96.7042 152.649 96.4695 152.552 96.2247 152.552H86.5398Z" fill="#FF9023"/>
<path d="M42.9064 138.996C42.6616 138.996 42.4269 139.093 42.2538 139.266C42.0807 139.439 41.9835 139.674 41.9835 139.919C41.9835 140.163 42.0807 140.398 42.2538 140.571C42.4269 140.744 42.6616 140.841 42.9064 140.841H96.6483C96.8931 140.841 97.1279 140.744 97.301 140.571C97.474 140.398 97.5713 140.163 97.5713 139.919C97.5713 139.674 97.474 139.439 97.301 139.266C97.1279 139.093 96.8931 138.996 96.6483 138.996H42.9064Z" fill="#E5E5E5"/>
<path d="M42.9064 145.774C42.662 145.774 42.4278 145.872 42.2551 146.045C42.0825 146.218 41.9855 146.452 41.9855 146.697C41.9855 146.941 42.0825 147.175 42.2551 147.348C42.4278 147.521 42.662 147.619 42.9064 147.619H96.6483C96.7697 147.62 96.8899 147.596 97.0022 147.55C97.1144 147.504 97.2164 147.436 97.3023 147.35C97.3882 147.264 97.4564 147.162 97.5029 147.05C97.5494 146.938 97.5733 146.818 97.5733 146.697C97.5733 146.575 97.5494 146.455 97.5029 146.343C97.4564 146.231 97.3882 146.129 97.3023 146.043C97.2164 145.957 97.1144 145.889 97.0022 145.843C96.8899 145.797 96.7697 145.773 96.6483 145.774H42.9064Z" fill="#E5E5E5"/>
<path d="M86.5398 196.044C86.295 196.044 86.0603 196.141 85.8872 196.314C85.7141 196.487 85.6169 196.722 85.6169 196.967C85.6169 197.212 85.7141 197.446 85.8872 197.619C86.0603 197.792 86.295 197.89 86.5398 197.89H96.2247C96.4695 197.89 96.7042 197.792 96.8773 197.619C97.0504 197.446 97.1476 197.212 97.1476 196.967C97.1476 196.722 97.0504 196.487 96.8773 196.314C96.7042 196.141 96.4695 196.044 96.2247 196.044H86.5398Z" fill="#FF9023"/>
<path d="M42.9064 182.488C42.6616 182.488 42.4269 182.585 42.2538 182.758C42.0807 182.931 41.9835 183.166 41.9835 183.411C41.9835 183.656 42.0807 183.89 42.2538 184.063C42.4269 184.236 42.6616 184.334 42.9064 184.334H96.6483C96.7697 184.334 96.89 184.31 97.0022 184.264C97.1144 184.218 97.2164 184.15 97.3023 184.064C97.3882 183.978 97.4564 183.877 97.5029 183.764C97.5494 183.652 97.5733 183.532 97.5733 183.411C97.5733 183.289 97.5494 183.169 97.5029 183.057C97.4564 182.945 97.3882 182.843 97.3023 182.757C97.2164 182.672 97.1144 182.604 97.0022 182.557C96.89 182.511 96.7697 182.488 96.6483 182.488H42.9064Z" fill="#E5E5E5"/>
<path d="M42.9064 189.266C42.6616 189.266 42.4269 189.363 42.2538 189.536C42.0807 189.709 41.9835 189.944 41.9835 190.189C41.9835 190.433 42.0807 190.668 42.2538 190.841C42.4269 191.014 42.6616 191.112 42.9064 191.112H96.6483C96.8931 191.112 97.1279 191.014 97.301 190.841C97.474 190.668 97.5713 190.433 97.5713 190.189C97.5713 189.944 97.474 189.709 97.301 189.536C97.1279 189.363 96.8931 189.266 96.6483 189.266H42.9064Z" fill="#E5E5E5"/>
<path d="M319.465 108.678L312.09 105.343C312.054 106.328 311.775 107.288 311.28 108.14C310.784 108.992 310.087 109.709 309.249 110.228C308.411 110.747 307.459 111.051 306.475 111.115C305.492 111.179 304.508 111 303.61 110.594L271.246 95.9602C270.348 95.5541 269.564 94.9335 268.962 94.1529C268.361 93.3724 267.96 92.4558 267.796 91.4841C267.633 90.5124 267.71 89.5153 268.022 88.5806C268.335 87.646 268.872 86.8024 269.587 86.1244L262.7 83.01C259.643 81.6279 256.162 81.5166 253.024 82.7007C249.885 83.8848 247.345 86.2672 245.963 89.3238L179.914 235.394C179.23 236.908 178.851 238.541 178.797 240.201C178.744 241.862 179.019 243.516 179.605 245.07C180.191 246.624 181.078 248.048 182.214 249.259C183.351 250.471 184.715 251.446 186.228 252.131L242.993 277.798C246.05 279.18 249.53 279.292 252.669 278.107C255.808 276.923 258.348 274.541 259.73 271.484L325.778 125.414C326.463 123.9 326.842 122.267 326.895 120.607C326.948 118.947 326.674 117.292 326.088 115.738C325.501 114.184 324.615 112.761 323.478 111.549C322.342 110.338 320.978 109.362 319.465 108.678Z" fill="#E4E4E4"/>
<path d="M253.769 178.229C248.798 175.971 244.509 172.445 241.333 168.005C238.157 163.565 236.205 158.367 235.675 152.933C235.621 152.394 235.583 151.84 235.56 151.288C235.344 146.443 236.28 141.616 238.292 137.203C240.163 133.07 242.918 129.399 246.362 126.447C249.807 123.495 253.857 121.335 258.228 120.119C262.598 118.903 267.182 118.661 271.656 119.41C276.13 120.158 280.386 121.88 284.122 124.452C287.859 127.025 290.985 130.386 293.281 134.299C295.577 138.211 296.986 142.58 297.41 147.096C297.833 151.613 297.26 156.168 295.732 160.439C294.203 164.71 291.756 168.594 288.563 171.816C287.375 173.019 286.087 174.121 284.714 175.108C280.283 178.298 275.091 180.266 269.659 180.814C264.227 181.361 258.747 180.47 253.769 178.229ZM278.942 122.555C271.669 119.277 263.391 119.017 255.926 121.834C248.462 124.65 242.419 130.313 239.124 137.579C237.171 141.862 236.262 146.547 236.472 151.249C236.495 151.785 236.532 152.322 236.583 152.845C237.09 158.121 238.981 163.17 242.064 167.481C245.148 171.792 249.316 175.213 254.146 177.397C258.975 179.581 264.296 180.451 269.57 179.919C274.844 179.387 279.884 177.472 284.18 174.367C285.512 173.409 286.761 172.341 287.914 171.173C291.333 167.723 293.866 163.497 295.297 158.856C296.729 154.215 297.016 149.296 296.134 144.52C295.253 139.743 293.229 135.251 290.235 131.426C287.242 127.602 283.367 124.558 278.942 122.555Z" fill="white"/>
<path d="M256.826 120.997L255.973 121.324L277.668 177.96L278.52 177.633L256.826 120.997Z" fill="white"/>
<path d="M294.194 138.663L237.556 160.354L237.883 161.206L294.52 139.515L294.194 138.663Z" fill="white"/>
<path d="M266.106 222.479L212.529 198.253C212.132 198.073 211.823 197.743 211.669 197.335C211.515 196.927 211.529 196.475 211.708 196.077L216.748 184.931C216.928 184.534 217.259 184.224 217.667 184.07C218.074 183.917 218.527 183.931 218.924 184.11L272.501 208.336C272.898 208.516 273.207 208.846 273.361 209.254C273.515 209.662 273.501 210.114 273.322 210.512L268.282 221.658C268.102 222.055 267.771 222.365 267.364 222.519C266.956 222.672 266.503 222.658 266.106 222.479ZM218.548 184.942C218.371 184.862 218.17 184.856 217.989 184.924C217.807 184.993 217.66 185.13 217.58 185.307L212.54 196.453C212.46 196.63 212.454 196.831 212.523 197.013C212.591 197.194 212.729 197.341 212.905 197.421L266.482 221.647C266.659 221.727 266.86 221.733 267.041 221.665C267.223 221.596 267.37 221.459 267.45 221.282L272.49 210.136C272.57 209.959 272.576 209.758 272.507 209.576C272.439 209.395 272.301 209.248 272.125 209.168L218.548 184.942Z" fill="white"/>
<path d="M253.127 251.182L199.551 226.956C199.153 226.776 198.844 226.446 198.69 226.038C198.536 225.63 198.55 225.177 198.73 224.78L203.77 213.634C203.95 213.237 204.28 212.927 204.688 212.773C205.096 212.619 205.548 212.633 205.946 212.813L259.522 237.038C259.919 237.219 260.229 237.549 260.383 237.957C260.537 238.365 260.522 238.817 260.343 239.215L255.303 250.361C255.123 250.758 254.793 251.067 254.385 251.221C253.977 251.375 253.525 251.361 253.127 251.182ZM205.57 213.645C205.393 213.565 205.192 213.559 205.01 213.627C204.829 213.696 204.682 213.833 204.602 214.01L199.562 225.156C199.482 225.333 199.476 225.534 199.544 225.716C199.612 225.897 199.75 226.044 199.927 226.124L253.503 250.35C253.68 250.43 253.881 250.436 254.063 250.367C254.244 250.299 254.391 250.161 254.471 249.985L259.511 238.838C259.591 238.662 259.597 238.46 259.529 238.279C259.46 238.097 259.323 237.951 259.146 237.87L205.57 213.645Z" fill="white"/>
<path d="M232.42 178.556C231.318 173.068 228.939 167.916 225.473 163.52C221.951 159.056 217.649 155.267 212.776 152.337C207.74 149.278 202.254 147.029 196.52 145.672C189.394 143.96 182.034 143.402 174.72 143.472C167.353 143.543 160.01 144.233 152.689 145.002C151.758 145.1 150.828 145.199 149.897 145.298C149.03 145.391 149.021 146.762 149.897 146.668C157.111 145.898 164.335 145.141 171.589 144.908C178.785 144.677 186.034 144.96 193.115 146.333C199.013 147.427 204.703 149.439 209.977 152.295C214.891 154.957 219.298 158.462 222.998 162.65C226.621 166.744 229.242 171.625 230.652 176.908C230.823 177.573 230.97 178.245 231.099 178.92C231.265 179.785 232.585 179.418 232.42 178.556Z" fill="#2F2E41"/>
<path d="M154.789 135.497L143.85 147.133C143.777 147.208 143.722 147.298 143.689 147.397C143.655 147.496 143.645 147.601 143.659 147.705C143.672 147.808 143.708 147.907 143.766 147.994C143.823 148.082 143.899 148.155 143.988 148.209L153.857 152.926C154.649 153.305 155.344 152.124 154.549 151.744L144.679 147.026L144.818 148.102L155.757 136.466C156.361 135.824 155.394 134.854 154.789 135.497Z" fill="#2F2E41"/>
<path d="M387.711 279.35H178.942C178.798 279.35 178.659 279.293 178.557 279.191C178.455 279.089 178.398 278.951 178.398 278.806C178.398 278.662 178.455 278.524 178.557 278.422C178.659 278.32 178.798 278.263 178.942 278.263H387.711C387.855 278.263 387.993 278.32 388.095 278.422C388.197 278.524 388.254 278.662 388.254 278.806C388.254 278.951 388.197 279.089 388.095 279.191C387.993 279.293 387.855 279.35 387.711 279.35Z" fill="#CACACA"/>
</g>
<defs>
<clipPath id="clip0_133_226">
<rect width="375.159" height="274.71" fill="white" transform="translate(13.0956 4.64001)"/>
</clipPath>
</defs>
</svg>
