<svg width="500" height="284" viewBox="0 0 500 284" fill="none" xmlns="http://www.w3.org/2000/svg">
<g clip-path="url(#clip0_133_262)">
<path d="M407.921 139.535H111.264C106.96 139.53 102.833 137.818 99.7895 134.775C96.7459 131.731 95.0339 127.604 95.0291 123.3V28.3503C95.0339 24.046 96.7459 19.9194 99.7895 16.8758C102.833 13.8322 106.96 12.1202 111.264 12.1154H407.921C412.225 12.1202 416.352 13.8322 419.395 16.8758C422.439 19.9194 424.151 24.046 424.156 28.3503V123.3C424.151 127.604 422.439 131.731 419.395 134.775C416.352 137.818 412.225 139.53 407.921 139.535Z" fill="#E6E6E6"/>
<path d="M111.756 18.5109C109.147 18.5139 106.646 19.5515 104.802 21.3961C102.957 23.2407 101.92 25.7416 101.917 28.3503V123.3C101.92 125.909 102.957 128.41 104.802 130.254C106.646 132.099 109.147 133.137 111.756 133.14H408.413C411.021 133.137 413.522 132.099 415.367 130.254C417.212 128.41 418.249 125.909 418.252 123.3V28.3503C418.249 25.7416 417.212 23.2407 415.367 21.3961C413.522 19.5515 411.021 18.5139 408.413 18.5109H111.756Z" fill="white"/>
<path d="M148.97 58.232C146.838 58.232 144.755 57.5999 142.982 56.4156C141.21 55.2314 139.829 53.5482 139.013 51.5789C138.197 49.6096 137.984 47.4426 138.4 45.352C138.815 43.2614 139.842 41.341 141.349 39.8338C142.856 38.3265 144.777 37.3001 146.867 36.8842C148.958 36.4684 151.125 36.6818 153.094 37.4975C155.064 38.3132 156.747 39.6946 157.931 41.4669C159.115 43.2393 159.747 45.323 159.747 47.4545C159.744 50.3119 158.608 53.0513 156.587 55.0718C154.567 57.0923 151.827 58.2288 148.97 58.232ZM148.97 38.1141C147.123 38.1141 145.317 38.6619 143.781 39.6883C142.245 40.7146 141.048 42.1734 140.341 43.8801C139.634 45.5868 139.449 47.4649 139.809 49.2768C140.169 51.0886 141.059 52.7529 142.365 54.0592C143.672 55.3655 145.336 56.2551 147.148 56.6155C148.96 56.9759 150.838 56.7909 152.544 56.084C154.251 55.377 155.71 54.1798 156.736 52.6438C157.763 51.1078 158.31 49.3019 158.31 47.4545C158.308 44.9782 157.323 42.604 155.572 40.853C153.821 39.1019 151.446 38.1169 148.97 38.1141Z" fill="#CCCCCC"/>
<path d="M148.731 45.0086H148.711L147.574 45.6226L147.403 44.9483L148.832 44.1835H149.587V50.7257H148.731V45.0086Z" fill="#CCCCCC"/>
<path d="M134.257 75.6309C134.511 75.6397 134.761 75.5719 134.976 75.4363C135.191 75.3008 135.36 75.1038 135.461 74.8709C135.562 74.638 135.591 74.38 135.544 74.1306C135.496 73.8811 135.375 73.6516 135.195 73.4721C135.016 73.2925 134.786 73.1712 134.537 73.1238C134.287 73.0764 134.029 73.1052 133.797 73.2064C133.564 73.3076 133.367 73.4766 133.231 73.6913C133.096 73.9061 133.028 74.1566 133.037 74.4104C133.048 74.7306 133.18 75.0346 133.406 75.2611C133.633 75.4876 133.937 75.6198 134.257 75.6309Z" fill="#E6E6E6"/>
<path d="M134.257 83.5343C134.511 83.5431 134.761 83.4753 134.976 83.3398C135.191 83.2042 135.36 83.0072 135.461 82.7743C135.562 82.5414 135.591 82.2835 135.544 82.034C135.496 81.7845 135.375 81.5551 135.195 81.3755C135.016 81.196 134.786 81.0746 134.537 81.0272C134.287 80.9798 134.029 81.0086 133.797 81.1099C133.564 81.2111 133.367 81.38 133.231 81.5948C133.096 81.8095 133.028 82.0601 133.037 82.3138C133.048 82.634 133.18 82.938 133.406 83.1646C133.633 83.3911 133.937 83.5232 134.257 83.5343Z" fill="#E6E6E6"/>
<path d="M134.257 91.4378C134.511 91.4465 134.761 91.3788 134.976 91.2432C135.191 91.1077 135.36 90.9106 135.461 90.6777C135.562 90.4449 135.591 90.1869 135.544 89.9374C135.496 89.688 135.375 89.4585 135.195 89.279C135.016 89.0994 134.786 88.978 134.537 88.9307C134.287 88.8833 134.029 88.9121 133.797 89.0133C133.564 89.1145 133.367 89.2835 133.231 89.4982C133.096 89.7129 133.028 89.9635 133.037 90.2173C133.048 90.5374 133.18 90.8415 133.406 91.068C133.633 91.2945 133.937 91.4267 134.257 91.4378Z" fill="#E6E6E6"/>
<path d="M164.185 75.0851H141.193C141.002 75.0851 140.82 75.0094 140.685 74.8747C140.55 74.7399 140.475 74.5572 140.475 74.3666C140.475 74.1761 140.55 73.9933 140.685 73.8586C140.82 73.7238 141.002 73.6481 141.193 73.6481H164.185C164.375 73.6481 164.558 73.7238 164.693 73.8586C164.828 73.9933 164.903 74.1761 164.903 74.3666C164.903 74.5572 164.828 74.7399 164.693 74.8747C164.558 75.0094 164.375 75.0851 164.185 75.0851Z" fill="#E6E6E6"/>
<path d="M164.185 82.9885H141.193C141.003 82.9887 140.82 82.9132 140.685 82.7786C140.55 82.644 140.474 82.4613 140.474 82.2708C140.474 82.0802 140.549 81.8974 140.684 81.7625C140.818 81.6276 141.001 81.5517 141.192 81.5515H164.185C164.375 81.5513 164.558 81.6268 164.693 81.7614C164.828 81.896 164.904 82.0787 164.904 82.2692C164.904 82.4598 164.829 82.6426 164.694 82.7775C164.56 82.9124 164.377 82.9883 164.186 82.9885H164.185Z" fill="#E6E6E6"/>
<path d="M164.185 90.8919H141.193C141.002 90.8919 140.82 90.8162 140.685 90.6815C140.55 90.5468 140.475 90.364 140.475 90.1735C140.475 89.9829 140.55 89.8001 140.685 89.6654C140.82 89.5306 141.002 89.455 141.193 89.455H164.185C164.279 89.4549 164.373 89.4733 164.46 89.5094C164.547 89.5454 164.626 89.5982 164.693 89.6649C164.76 89.7315 164.813 89.8107 164.849 89.8978C164.885 89.9849 164.904 90.0783 164.904 90.1727C164.904 90.267 164.886 90.3605 164.85 90.4477C164.814 90.5349 164.761 90.6142 164.694 90.681C164.628 90.7477 164.548 90.8008 164.461 90.837C164.374 90.8732 164.281 90.8918 164.186 90.8919H164.185Z" fill="#E6E6E6"/>
<path d="M215.726 56.7561C213.594 56.7561 211.511 56.124 209.738 54.9397C207.966 53.7555 206.585 52.0723 205.769 50.103C204.953 48.1337 204.74 45.9667 205.156 43.8761C205.572 41.7855 206.598 39.8651 208.105 38.3579C209.612 36.8506 211.533 35.8242 213.623 35.4083C215.714 34.9925 217.881 35.2059 219.85 36.0216C221.82 36.8373 223.503 38.2187 224.687 39.991C225.871 41.7634 226.503 43.8471 226.503 45.9786C226.503 47.394 226.225 48.7954 225.683 50.103C225.141 51.4106 224.348 52.5987 223.347 53.5994C222.346 54.6002 221.158 55.3941 219.85 55.9357C218.543 56.4773 217.141 56.7561 215.726 56.7561ZM215.726 36.6382C213.879 36.6382 212.073 37.186 210.537 38.2124C209.001 39.2387 207.804 40.6975 207.097 42.4042C206.39 44.1109 206.205 45.989 206.565 47.8009C206.925 49.6127 207.815 51.277 209.121 52.5833C210.428 53.8896 212.092 54.7792 213.904 55.1396C215.716 55.5 217.594 55.315 219.3 54.6081C221.007 53.9011 222.466 52.704 223.492 51.1679C224.519 49.6319 225.066 47.826 225.066 45.9787C225.064 43.5023 224.079 41.1282 222.328 39.3771C220.576 37.6261 218.202 36.6411 215.726 36.6382Z" fill="#CCCCCC"/>
<path d="M213.82 49.3052V48.7614L214.514 48.0871C216.185 46.4972 216.94 45.651 216.95 44.6652C216.968 44.4912 216.946 44.3154 216.887 44.1509C216.828 43.9863 216.732 43.8372 216.608 43.7145C216.483 43.5918 216.332 43.4987 216.167 43.4421C216.001 43.3855 215.825 43.3668 215.652 43.3875C215.139 43.4063 214.648 43.6016 214.262 43.9404L213.98 43.3166C214.5 42.8839 215.156 42.6486 215.833 42.6521C216.093 42.629 216.355 42.6615 216.602 42.7476C216.848 42.8336 217.074 42.9711 217.263 43.1511C217.453 43.331 217.602 43.5492 217.7 43.7911C217.799 44.0331 217.845 44.2932 217.835 44.5543C217.835 45.7619 216.959 46.7386 215.581 48.0668L215.057 48.5502V48.5699H217.997V49.3052H213.82Z" fill="#CCCCCC"/>
<path d="M244.26 114.428H187.192C186.018 114.426 184.893 113.959 184.062 113.129C183.232 112.299 182.766 111.174 182.764 110V76.0541C182.766 74.8802 183.232 73.7548 184.062 72.9247C184.893 72.0947 186.018 71.6277 187.192 71.6264H244.26C245.434 71.6277 246.56 72.0947 247.39 72.9247C248.22 73.7548 248.687 74.8802 248.688 76.0541V110C248.687 111.174 248.22 112.299 247.39 113.129C246.56 113.959 245.434 114.426 244.26 114.428Z" fill="white"/>
<path d="M235.125 80.8127H196.327C196.136 80.8129 195.953 80.7374 195.818 80.6028C195.684 80.4682 195.608 80.2855 195.607 80.0949C195.607 79.9044 195.683 79.7215 195.817 79.5867C195.952 79.4518 196.135 79.3759 196.325 79.3757H235.125C235.316 79.3755 235.499 79.451 235.634 79.5856C235.768 79.7202 235.844 79.9028 235.845 80.0934C235.845 80.284 235.769 80.4668 235.635 80.6017C235.5 80.7366 235.317 80.8125 235.127 80.8127H235.125Z" fill="#E6E6E6"/>
<path d="M235.125 87.2791H196.327C196.136 87.2793 195.953 87.2038 195.818 87.0692C195.684 86.9346 195.608 86.7519 195.607 86.5614C195.607 86.3708 195.683 86.188 195.817 86.0531C195.952 85.9182 196.135 85.8423 196.325 85.8421H235.125C235.316 85.8421 235.499 85.9178 235.633 86.0525C235.768 86.1873 235.844 86.37 235.844 86.5606C235.844 86.7512 235.768 86.9339 235.633 87.0686C235.499 87.2034 235.316 87.2791 235.125 87.2791Z" fill="#E6E6E6"/>
<path d="M235.125 93.7455H196.327C196.136 93.7457 195.953 93.6702 195.818 93.5356C195.684 93.401 195.608 93.2184 195.607 93.0278C195.607 92.8372 195.683 92.6544 195.817 92.5195C195.952 92.3846 196.135 92.3087 196.325 92.3085H235.125C235.316 92.3083 235.499 92.3838 235.634 92.5184C235.768 92.653 235.844 92.8357 235.845 93.0263C235.845 93.2168 235.769 93.3996 235.635 93.5345C235.5 93.6694 235.317 93.7453 235.127 93.7455H235.125Z" fill="#E6E6E6"/>
<path d="M235.125 100.212H196.327C196.136 100.212 195.954 100.136 195.82 100.002C195.685 99.867 195.609 99.6845 195.609 99.4943C195.609 99.304 195.684 99.1214 195.818 98.9866C195.953 98.8518 196.135 98.7757 196.325 98.775H235.125C235.316 98.7755 235.498 98.8514 235.632 98.9861C235.766 99.1208 235.842 99.3033 235.842 99.4935C235.842 99.6838 235.766 99.8662 235.632 100.001C235.498 100.136 235.316 100.212 235.125 100.212Z" fill="#E6E6E6"/>
<path d="M235.125 106.678H196.327C196.136 106.678 195.953 106.603 195.819 106.468C195.684 106.333 195.608 106.151 195.608 105.96C195.608 105.769 195.684 105.587 195.819 105.452C195.953 105.317 196.136 105.241 196.327 105.241H235.125C235.316 105.241 235.499 105.317 235.634 105.451C235.768 105.586 235.844 105.769 235.845 105.959C235.845 106.15 235.769 106.333 235.635 106.467C235.5 106.602 235.317 106.678 235.127 106.678H235.125Z" fill="#E6E6E6"/>
<path d="M244.26 114.428H187.192C186.018 114.426 184.893 113.959 184.062 113.129C183.232 112.299 182.766 111.174 182.764 110V76.0541C182.766 74.8802 183.232 73.7548 184.062 72.9247C184.893 72.0947 186.018 71.6277 187.192 71.6264H244.26C245.434 71.6277 246.56 72.0947 247.39 72.9247C248.22 73.7548 248.687 74.8802 248.688 76.0541V110C248.687 111.174 248.22 112.299 247.39 113.129C246.56 113.959 245.434 114.426 244.26 114.428ZM187.192 72.6103C186.279 72.6114 185.403 72.9745 184.758 73.6201C184.112 74.2657 183.749 75.1411 183.748 76.0541V110C183.749 110.913 184.112 111.788 184.758 112.434C185.403 113.08 186.279 113.443 187.192 113.444H244.26C245.173 113.443 246.049 113.08 246.694 112.434C247.34 111.788 247.703 110.913 247.704 110V76.0541C247.703 75.1411 247.34 74.2657 246.694 73.6201C246.049 72.9745 245.173 72.6114 244.26 72.6103H187.192Z" fill="#E6E6E6"/>
<path d="M287.933 56.7561C285.801 56.7561 283.718 56.124 281.945 54.9397C280.173 53.7555 278.792 52.0723 277.976 50.103C277.16 48.1337 276.947 45.9667 277.363 43.8761C277.779 41.7855 278.805 39.8651 280.312 38.3579C281.819 36.8506 283.74 35.8242 285.83 35.4083C287.921 34.9925 290.088 35.2059 292.057 36.0216C294.027 36.8373 295.71 38.2187 296.894 39.991C298.078 41.7634 298.71 43.8471 298.71 45.9786C298.71 48.837 297.575 51.5783 295.554 53.5994C293.533 55.6206 290.791 56.7561 287.933 56.7561ZM287.933 36.6382C286.086 36.6382 284.28 37.186 282.744 38.2124C281.208 39.2387 280.011 40.6975 279.304 42.4042C278.597 44.1109 278.412 45.989 278.772 47.8009C279.132 49.6127 280.022 51.277 281.328 52.5833C282.635 53.8896 284.299 54.7792 286.111 55.1396C287.923 55.5 289.801 55.315 291.507 54.6081C293.214 53.9011 294.673 52.704 295.699 51.1679C296.726 49.6319 297.273 47.826 297.273 45.9787C297.271 43.5023 296.286 41.1282 294.534 39.3771C292.783 37.6261 290.409 36.6411 287.933 36.6382Z" fill="#CCCCCC"/>
<path d="M286.131 48.2329C286.571 48.4928 287.07 48.6349 287.58 48.6455C288.718 48.6455 289.071 47.9207 289.06 47.3776C289.05 46.4612 288.224 46.069 287.37 46.069H286.876V45.4045H287.37C288.014 45.4045 288.829 45.0727 288.829 44.2973C288.829 43.7739 288.497 43.3108 287.681 43.3108C287.212 43.324 286.758 43.4748 286.374 43.7444L286.142 43.1003C286.651 42.7687 287.245 42.5936 287.853 42.5965C289.141 42.5965 289.725 43.3613 289.725 44.157C289.718 44.51 289.596 44.8513 289.378 45.129C289.16 45.4068 288.858 45.606 288.516 45.6964V45.7168C288.921 45.7753 289.291 45.9772 289.559 46.2857C289.826 46.5942 289.975 46.9887 289.976 47.3973C289.976 48.4441 289.161 49.3605 287.591 49.3605C286.994 49.3682 286.407 49.215 285.89 48.917L286.131 48.2329Z" fill="#CCCCCC"/>
<path d="M272.008 104.946C272.262 104.955 272.513 104.887 272.727 104.752C272.942 104.616 273.111 104.419 273.212 104.186C273.313 103.953 273.342 103.695 273.295 103.446C273.247 103.196 273.126 102.967 272.947 102.787C272.767 102.608 272.538 102.486 272.288 102.439C272.039 102.392 271.781 102.42 271.548 102.522C271.315 102.623 271.118 102.792 270.982 103.007C270.847 103.221 270.779 103.472 270.788 103.726C270.799 104.046 270.931 104.35 271.157 104.576C271.384 104.803 271.688 104.935 272.008 104.946Z" fill="#E6E6E6"/>
<path d="M301.936 104.4H278.944C278.754 104.4 278.571 104.325 278.436 104.19C278.301 104.055 278.226 103.872 278.226 103.682C278.226 103.491 278.301 103.308 278.436 103.174C278.571 103.039 278.754 102.963 278.944 102.963H301.936C302.03 102.963 302.124 102.982 302.211 103.018C302.298 103.054 302.377 103.107 302.444 103.173C302.511 103.24 302.564 103.319 302.6 103.406C302.636 103.493 302.655 103.587 302.655 103.681C302.655 103.775 302.637 103.869 302.601 103.956C302.565 104.043 302.512 104.122 302.445 104.189C302.379 104.256 302.3 104.309 302.212 104.345C302.125 104.381 302.032 104.4 301.938 104.4H301.936Z" fill="#E6E6E6"/>
<path d="M308.104 94.7489H267.762C266.849 94.7479 265.974 94.3847 265.328 93.7391C264.683 93.0935 264.32 92.2182 264.319 91.3051V75.0702C264.32 74.1571 264.683 73.2818 265.328 72.6362C265.974 71.9906 266.849 71.6274 267.762 71.6264H308.104C309.017 71.6274 309.892 71.9906 310.538 72.6362C311.183 73.2818 311.546 74.1571 311.547 75.0702V91.3051C311.546 92.2182 311.183 93.0935 310.538 93.7391C309.892 94.3847 309.017 94.7479 308.104 94.7489ZM267.762 72.6103C267.11 72.6111 266.485 72.8705 266.024 73.3316C265.563 73.7928 265.303 74.418 265.302 75.0702V91.3051C265.303 91.9573 265.563 92.5825 266.024 93.0437C266.485 93.5048 267.11 93.7642 267.762 93.765H308.104C308.756 93.7642 309.381 93.5048 309.842 93.0437C310.303 92.5825 310.563 91.9573 310.564 91.3051V75.0702C310.563 74.418 310.303 73.7928 309.842 73.3316C309.381 72.8705 308.756 72.6111 308.104 72.6103H267.762Z" fill="#E6E6E6"/>
<path d="M310.134 72.6921L265.392 92.8585L265.796 93.7555L310.538 73.5891L310.134 72.6921Z" fill="#E6E6E6"/>
<path d="M265.983 72.4422L265.573 73.3363L310.068 93.753L310.478 92.8589L265.983 72.4422Z" fill="#E6E6E6"/>
<path d="M341.249 83.8515C341.221 83.7943 341.186 83.7412 341.144 83.6937L335.755 78.305C335.689 78.2381 335.609 78.1851 335.522 78.1488C335.435 78.1126 335.341 78.0939 335.247 78.0939C335.153 78.0938 335.059 78.1124 334.972 78.1485C334.885 78.1846 334.805 78.2375 334.739 78.3043C334.672 78.371 334.619 78.4503 334.583 78.5376C334.547 78.6248 334.528 78.7183 334.528 78.8128C334.528 78.9072 334.547 79.0007 334.583 79.0879C334.619 79.1751 334.672 79.2543 334.739 79.321L338.901 83.4832H320.518C320.328 83.4832 320.145 83.5589 320.01 83.6936C319.875 83.8284 319.8 84.0111 319.8 84.2017C319.8 84.3922 319.875 84.575 320.01 84.7097C320.145 84.8445 320.328 84.9202 320.518 84.9202H338.901L335.098 88.7231C335.032 88.7898 334.978 88.869 334.942 88.9562C334.906 89.0435 334.887 89.137 334.887 89.2315C334.887 89.326 334.905 89.4195 334.941 89.5068C334.978 89.5941 335.031 89.6735 335.097 89.7403C335.164 89.8071 335.243 89.8601 335.331 89.8962C335.418 89.9323 335.512 89.9508 335.606 89.9507C335.701 89.9506 335.794 89.9319 335.881 89.8956C335.969 89.8593 336.048 89.8061 336.114 89.7391L341.143 84.7102L341.144 84.7097C341.254 84.5982 341.324 84.4536 341.342 84.2984C341.361 84.1432 341.328 83.9861 341.249 83.8515Z" fill="#CCCCCC"/>
<path d="M387.133 69.7294H386.796V60.5051C386.796 59.804 386.658 59.1097 386.39 58.462C386.122 57.8143 385.728 57.2257 385.233 56.73C384.737 56.2342 384.148 55.841 383.5 55.5727C382.853 55.3044 382.159 55.1663 381.457 55.1663H361.914C361.213 55.1663 360.519 55.3044 359.871 55.5727C359.224 55.8409 358.635 56.2342 358.139 56.7299C357.644 57.2257 357.25 57.8142 356.982 58.462C356.714 59.1097 356.576 59.8039 356.576 60.505V111.11C356.576 112.526 357.138 113.884 358.139 114.886C359.141 115.887 360.498 116.449 361.914 116.449H381.457C382.159 116.449 382.853 116.311 383.5 116.043C384.148 115.775 384.737 115.381 385.233 114.886C385.728 114.39 386.122 113.801 386.39 113.154C386.658 112.506 386.796 111.812 386.796 111.11V76.2954H387.133V69.7294Z" fill="#3F3D56"/>
<path d="M385.66 60.5423V111.073C385.66 112.131 385.24 113.145 384.492 113.893C383.744 114.64 382.73 115.06 381.673 115.06H362.036C360.979 115.06 359.964 114.64 359.217 113.893C358.469 113.145 358.049 112.131 358.049 111.073V60.5423C358.049 59.4849 358.469 58.4707 359.217 57.723C359.964 56.9753 360.979 56.5552 362.036 56.5552H364.418C364.301 56.8428 364.257 57.1548 364.288 57.4637C364.32 57.7727 364.427 58.069 364.601 58.3268C364.774 58.5845 365.008 58.7957 365.282 58.9418C365.556 59.0879 365.862 59.1645 366.172 59.1647H377.368C377.679 59.1645 377.984 59.0879 378.258 58.9418C378.533 58.7957 378.766 58.5845 378.94 58.3267C379.113 58.069 379.22 57.7726 379.252 57.4637C379.284 57.1548 379.239 56.8428 379.122 56.5552H381.673C382.73 56.5552 383.744 56.9753 384.492 57.723C385.24 58.4707 385.66 59.4849 385.66 60.5423Z" fill="white"/>
<path d="M128.289 118.922C128.085 118.664 127.943 118.363 127.873 118.042C127.803 117.721 127.807 117.388 127.885 117.069C129.75 109.257 129.75 101.116 127.885 93.304C127.807 92.9848 127.803 92.652 127.873 92.3309C127.943 92.0099 128.085 91.709 128.289 91.4512C128.488 91.197 128.743 90.9917 129.034 90.8508C129.325 90.71 129.644 90.6373 129.967 90.6383H149.905C150.414 90.6393 150.907 90.821 151.295 91.1512C151.683 91.4814 151.941 91.9386 152.024 92.4414C153.324 100.888 153.324 109.485 152.024 117.932C151.941 118.434 151.683 118.892 151.295 119.222C150.907 119.552 150.414 119.734 149.905 119.735H129.967C129.644 119.736 129.325 119.663 129.034 119.522C128.743 119.381 128.488 119.176 128.289 118.922Z" fill="#FF9023"/>
<path d="M146.057 101.374H135.554C135.163 101.374 134.788 101.218 134.511 100.941C134.234 100.665 134.079 100.289 134.078 99.898V99.2713C134.079 98.88 134.234 98.5049 134.511 98.2282C134.788 97.9515 135.163 97.7958 135.554 97.7954H146.057C146.449 97.7958 146.824 97.9515 147.101 98.2282C147.377 98.5049 147.533 98.88 147.533 99.2713V99.898C147.533 100.289 147.377 100.665 147.101 100.941C146.824 101.218 146.449 101.374 146.057 101.374Z" fill="white"/>
<path d="M146.057 107.547H135.554C135.163 107.546 134.788 107.391 134.511 107.114C134.234 106.837 134.079 106.462 134.078 106.071V105.444C134.079 105.053 134.234 104.678 134.511 104.401C134.788 104.124 135.163 103.969 135.554 103.968H146.057C146.449 103.969 146.824 104.124 147.101 104.401C147.377 104.678 147.533 105.053 147.533 105.444V106.071C147.533 106.462 147.377 106.837 147.101 107.114C146.824 107.391 146.449 107.546 146.057 107.547Z" fill="white"/>
<path d="M312.692 137.091C311.412 128.78 311.412 120.323 312.692 112.012C312.773 111.518 313.027 111.068 313.409 110.743C313.79 110.418 314.275 110.239 314.776 110.238H334.392C334.71 110.237 335.024 110.309 335.31 110.448C335.596 110.586 335.847 110.788 336.043 111.038C336.244 111.292 336.383 111.588 336.452 111.904C336.521 112.22 336.517 112.547 336.44 112.861C334.605 120.547 334.605 128.556 336.44 136.242C336.517 136.556 336.521 136.883 336.452 137.199C336.384 137.515 336.244 137.811 336.043 138.064C335.847 138.315 335.596 138.517 335.31 138.655C335.024 138.794 334.71 138.865 334.392 138.864H314.776C314.275 138.863 313.79 138.685 313.409 138.36C313.027 138.035 312.773 137.585 312.692 137.091Z" fill="#FF9023"/>
<path d="M328.714 122.986H318.42C318.029 122.986 317.654 122.83 317.377 122.553C317.101 122.277 316.945 121.901 316.944 121.51V120.933C316.945 120.542 317.101 120.167 317.377 119.89C317.654 119.613 318.029 119.458 318.42 119.457H328.714C329.105 119.458 329.481 119.613 329.757 119.89C330.034 120.167 330.19 120.542 330.19 120.933V121.51C330.19 121.901 330.034 122.277 329.757 122.553C329.481 122.83 329.105 122.986 328.714 122.986Z" fill="white"/>
<path d="M27.8515 191.702C31.9712 184.372 37.1884 177.715 43.322 171.964C43.691 171.625 44.1684 171.427 44.6693 171.407C45.1701 171.387 45.6618 171.545 46.0569 171.854L61.4957 183.955C61.7465 184.15 61.9494 184.4 62.089 184.685C62.2287 184.971 62.3012 185.285 62.3013 185.603C62.3027 185.926 62.2303 186.245 62.0896 186.536C61.949 186.827 61.7438 187.082 61.4896 187.282C55.3043 192.199 50.3632 198.503 47.0661 205.684C46.9329 205.978 46.7342 206.239 46.4852 206.445C46.2363 206.651 45.9435 206.797 45.6293 206.873C45.3206 206.949 44.9987 206.954 44.688 206.886C44.3773 206.819 44.0861 206.682 43.8366 206.485L28.3978 194.384C28.0039 194.074 27.7329 193.634 27.6328 193.143C27.5328 192.652 27.6103 192.141 27.8515 191.702Z" fill="#CCCCCC"/>
<path d="M49.2556 189.786L41.1539 183.435C40.8462 183.194 40.6469 182.84 40.5999 182.451C40.5528 182.063 40.6617 181.672 40.9028 181.363L41.2584 180.91C41.5001 180.602 41.8541 180.403 42.2425 180.356C42.631 180.308 43.0223 180.417 43.3305 180.658L51.4322 187.009C51.7399 187.25 51.9391 187.604 51.9862 187.993C52.0333 188.381 51.9244 188.772 51.6833 189.081L51.3277 189.534C51.0859 189.842 50.732 190.041 50.3435 190.088C49.9551 190.135 49.5638 190.027 49.2556 189.786Z" fill="white"/>
<path d="M45.5091 194.565L37.4074 188.215C37.0997 187.974 36.9004 187.62 36.8533 187.231C36.8062 186.843 36.9152 186.451 37.1562 186.143L37.512 185.689C37.7538 185.382 38.1077 185.182 38.4961 185.135C38.8846 185.088 39.2759 185.197 39.5841 185.438L47.6858 191.788C47.9935 192.03 48.1928 192.384 48.2399 192.772C48.287 193.161 48.178 193.552 47.937 193.86L47.5812 194.314C47.3394 194.622 46.9855 194.821 46.597 194.868C46.2086 194.915 45.8173 194.806 45.5091 194.565Z" fill="white"/>
<path d="M445.031 198.095C443.752 189.784 443.752 181.327 445.031 173.016C445.113 172.522 445.367 172.072 445.748 171.747C446.13 171.422 446.615 171.243 447.116 171.242H466.732C467.05 171.241 467.364 171.313 467.65 171.452C467.936 171.59 468.186 171.792 468.383 172.043C468.583 172.296 468.723 172.592 468.792 172.908C468.861 173.224 468.857 173.551 468.78 173.865C466.945 181.551 466.945 189.56 468.78 197.246C468.856 197.56 468.861 197.887 468.792 198.203C468.723 198.519 468.583 198.815 468.383 199.068C468.186 199.319 467.936 199.521 467.65 199.659C467.364 199.798 467.05 199.869 466.732 199.868H447.116C446.615 199.868 446.13 199.689 445.748 199.364C445.367 199.039 445.113 198.589 445.031 198.095Z" fill="#CCCCCC"/>
<path d="M461.054 183.99H450.76C450.369 183.99 449.993 183.834 449.717 183.557C449.44 183.281 449.284 182.905 449.284 182.514V181.937C449.284 181.546 449.44 181.171 449.717 180.894C449.993 180.618 450.369 180.462 450.76 180.461H461.054C461.445 180.462 461.82 180.618 462.097 180.894C462.373 181.171 462.529 181.546 462.529 181.937V182.514C462.529 182.905 462.373 183.281 462.097 183.557C461.82 183.834 461.445 183.99 461.054 183.99Z" fill="white"/>
<path d="M450.793 175.154C451.378 173.97 451.496 172.61 451.124 171.344C450.751 170.077 449.916 168.998 448.783 168.319C448.555 168.193 448.315 168.085 448.068 167.999L447.665 150.136L440.529 155.39L442.007 171.548C441.743 172.632 441.834 173.772 442.266 174.801C442.698 175.83 443.45 176.693 444.409 177.263C444.961 177.57 445.571 177.759 446.2 177.819C446.829 177.878 447.464 177.807 448.064 177.609C448.664 177.41 449.216 177.09 449.686 176.667C450.155 176.245 450.533 175.729 450.793 175.154Z" fill="#A0616A"/>
<path d="M447.787 167.222L442.672 167.53C442.127 167.544 441.596 167.352 441.185 166.992C440.775 166.632 440.515 166.131 440.457 165.588L436.211 133.636L429.348 114.146C428.768 112.522 428.832 110.738 429.525 109.16C429.847 108.399 430.321 107.713 430.918 107.142C431.515 106.572 432.223 106.129 432.997 105.842C436.123 104.706 439.545 106.505 440.625 109.851L447.604 132.197L449.757 164.83C449.8 165.422 449.615 166.008 449.24 166.467C449.006 166.756 448.697 166.977 448.348 167.106C448.168 167.172 447.978 167.211 447.787 167.222Z" fill="#3F3D56"/>
<path d="M417.969 265.43L411.938 265.429L409.069 242.165L417.97 242.166L417.969 265.43Z" fill="#A0616A"/>
<path d="M419.507 271.276L400.06 271.276V271.03C400.06 270.036 400.255 269.051 400.636 268.133C401.016 267.214 401.574 266.38 402.277 265.677C402.98 264.974 403.814 264.417 404.732 264.036C405.651 263.656 406.635 263.46 407.629 263.46L419.508 263.461L419.507 271.276Z" fill="#2F2E41"/>
<path d="M435.68 265.43L429.649 265.429L426.78 242.165L435.681 242.166L435.68 265.43Z" fill="#A0616A"/>
<path d="M437.218 271.276L417.77 271.276V271.03C417.77 270.036 417.966 269.051 418.347 268.133C418.727 267.214 419.285 266.38 419.988 265.677C420.69 264.974 421.525 264.417 422.443 264.036C423.362 263.656 424.346 263.46 425.34 263.46L437.219 263.461L437.218 271.276Z" fill="#2F2E41"/>
<path d="M439.728 171.411L438.288 256.863C438.283 257.133 438.223 257.4 438.11 257.646C437.998 257.893 437.836 258.113 437.635 258.294C437.433 258.475 437.197 258.612 436.94 258.697C436.683 258.782 436.411 258.814 436.142 258.789L429.084 258.148C428.621 258.106 428.188 257.901 427.861 257.57C427.535 257.239 427.336 256.803 427.3 256.34L423.168 203.038C423.159 202.912 423.101 202.796 423.008 202.711C422.915 202.627 422.794 202.581 422.668 202.584C422.542 202.586 422.423 202.637 422.333 202.725C422.243 202.813 422.191 202.932 422.186 203.057L420.121 257.58C420.102 258.088 419.886 258.57 419.519 258.923C419.153 259.276 418.663 259.473 418.154 259.473H410.585C410.084 259.473 409.602 259.282 409.237 258.939C408.872 258.595 408.651 258.126 408.621 257.625L403.322 170.919L434.808 163.047L439.728 171.411Z" fill="#2F2E41"/>
<path d="M416.89 91.1725C423.563 91.1725 428.973 85.7626 428.973 79.0892C428.973 72.4158 423.563 67.006 416.89 67.006C410.217 67.006 404.807 72.4158 404.807 79.0892C404.807 85.7626 410.217 91.1725 416.89 91.1725Z" fill="#A0616A"/>
<path d="M402.244 173.953C402.035 173.751 401.868 173.509 401.752 173.242C401.637 172.974 401.576 172.687 401.573 172.396L400.758 114.126C400.709 111.162 401.6 108.258 403.305 105.833C405.009 103.407 407.439 101.584 410.244 100.625C411.376 95.4896 417.401 94.8463 420.913 94.9232C421.79 94.942 422.649 95.172 423.418 95.5936C424.187 96.0152 424.843 96.616 425.33 97.345L427.848 101.122L433.397 104.375C435.966 105.874 437.991 108.15 439.182 110.875C440.374 113.6 440.668 116.632 440.024 119.536L439.17 123.422C436.161 137.177 436.448 151.448 440.005 165.072L441.724 171.627C441.814 171.968 441.821 172.326 441.744 172.671C441.667 173.015 441.509 173.336 441.283 173.607C441.056 173.878 440.769 174.091 440.444 174.228C440.118 174.365 439.765 174.423 439.413 174.396L437.416 174.242C436.898 174.203 436.41 173.982 436.038 173.619C435.667 173.255 435.435 172.773 435.383 172.255L435.053 168.951C435.047 168.89 435.018 168.834 434.973 168.793C434.928 168.752 434.869 168.729 434.808 168.729C434.747 168.729 434.688 168.752 434.643 168.793C434.598 168.834 434.569 168.89 434.563 168.951L434.244 172.15C434.19 172.691 433.939 173.192 433.539 173.56C433.139 173.928 432.618 174.135 432.075 174.144L403.821 174.578C403.809 174.578 403.797 174.579 403.785 174.579C403.209 174.58 402.656 174.355 402.244 173.953Z" fill="#3F3D56"/>
<path d="M417.835 86.0543C417.885 87.7624 419.071 88.7506 420.527 89.6452C421.983 90.5399 423.684 90.9279 425.352 91.3021C425.576 91.421 425.827 91.4802 426.08 91.474C426.333 91.4678 426.581 91.3964 426.799 91.2666C427.017 91.1368 427.197 90.9531 427.324 90.7331C427.45 90.5132 427.517 90.2644 427.519 90.0109L429.048 84.1942C429.589 82.3361 429.983 80.4383 430.226 78.5184C430.594 74.8241 429.718 70.85 427.14 68.179C424.561 65.508 420.09 64.5591 417 66.6171C413.333 61.9337 396.571 72.2811 400.706 75.5379C401.442 76.1173 402.566 75.3841 403.5 75.3131C404.433 75.242 405.48 75.4063 406.073 76.1308C406.847 77.0775 406.51 78.4876 406.829 79.6685C406.961 80.084 407.174 80.4693 407.456 80.8021C407.738 81.1348 408.083 81.4085 408.471 81.6074C408.859 81.8063 409.282 81.9264 409.717 81.9608C410.151 81.9952 410.589 81.9431 411.003 81.8078C411.775 81.4274 412.501 80.9605 413.168 80.4162C413.884 79.9392 414.789 79.5867 415.595 79.8876C416.657 80.2841 417.035 81.5851 417.131 82.7152C417.293 83.8423 417.528 84.9577 417.835 86.0543Z" fill="#2F2E41"/>
<path opacity="0.2" d="M415.013 118.439L413.045 142.545L402.714 167.635L417.965 143.037L415.013 118.439Z" fill="black"/>
<path d="M400.298 176.979C400.862 176.526 401.32 175.955 401.639 175.306C401.959 174.657 402.132 173.946 402.147 173.223C402.162 172.5 402.018 171.783 401.726 171.121C401.433 170.46 400.999 169.87 400.455 169.395L407.036 153.093L398.081 154.901L393.204 170.105C392.466 171.073 392.108 172.278 392.199 173.492C392.29 174.707 392.823 175.845 393.698 176.693C394.572 177.54 395.727 178.037 396.944 178.09C398.16 178.143 399.354 177.747 400.298 176.979Z" fill="#A0616A"/>
<path d="M400.106 169.789L395.037 167.962C394.515 167.771 394.083 167.392 393.827 166.898C393.57 166.405 393.508 165.833 393.652 165.296L402.014 134.686L403.289 107.022C403.328 106.187 403.532 105.367 403.889 104.612C404.247 103.857 404.752 103.18 405.373 102.621C405.995 102.062 406.722 101.633 407.511 101.357C408.3 101.082 409.136 100.966 409.971 101.017C410.805 101.067 411.621 101.283 412.371 101.652C413.121 102.021 413.791 102.535 414.34 103.165C414.89 103.794 415.309 104.527 415.573 105.32C415.837 106.114 415.94 106.951 415.878 107.785L413.601 138.077L402.946 168.44C402.784 168.899 402.476 169.292 402.069 169.559C401.663 169.825 401.18 169.951 400.694 169.916C400.493 169.901 400.296 169.858 400.106 169.789Z" fill="#3F3D56"/>
<path d="M34.9765 258.444L40.3926 261.099L53.2093 241.472L45.2163 237.554L34.9765 258.444Z" fill="#FFB8B8"/>
<path d="M34.462 255.999L45.1276 261.227C46.0202 261.664 46.8183 262.273 47.4754 263.019C48.1326 263.765 48.6365 264.633 48.9582 265.574C49.28 266.514 49.4133 267.509 49.3506 268.501C49.2879 269.493 49.0304 270.463 48.5928 271.356L48.4846 271.577L31.022 263.017L34.462 255.999Z" fill="#2F2E41"/>
<path d="M88.6473 267.698L94.6789 267.697L97.548 244.433L88.6464 244.434L88.6473 267.698Z" fill="#FFB8B8"/>
<path d="M87.1088 263.761L98.9867 263.76H98.9872C99.9813 263.76 100.966 263.956 101.884 264.336C102.802 264.717 103.637 265.274 104.34 265.977C105.043 266.68 105.6 267.515 105.981 268.433C106.361 269.351 106.557 270.336 106.557 271.33V271.576L87.1091 271.576L87.1088 263.761Z" fill="#2F2E41"/>
<path d="M75.6917 107.142C82.3651 107.142 87.775 101.732 87.775 95.0588C87.775 88.3854 82.3651 82.9756 75.6917 82.9756C69.0183 82.9756 63.6085 88.3854 63.6085 95.0588C63.6085 101.732 69.0183 107.142 75.6917 107.142Z" fill="#FFB8B8"/>
<path d="M87.7242 260.024C87.1542 260.024 86.6065 259.803 86.195 259.409C85.7835 259.014 85.5399 258.477 85.5151 257.907L80.8445 195.741C80.8391 195.578 80.7799 195.422 80.6762 195.296C80.5726 195.17 80.4302 195.083 80.2713 195.046C80.1125 195.01 79.9461 195.027 79.798 195.095C79.65 195.163 79.5287 195.279 79.453 195.423L49.575 252.463C49.3038 252.975 48.8439 253.36 48.2928 253.538C47.7417 253.716 47.143 253.672 46.6238 253.416L38.2948 249.251C37.7723 248.989 37.3746 248.53 37.1883 247.976C37.0019 247.422 37.042 246.816 37.2997 246.292L55.128 210.165L66.9366 183.105C71.4945 174.127 76.3346 169.5 81.7333 168.96C87.2719 168.407 93.1867 172.215 99.8189 180.604L99.8729 180.672L99.8718 180.759L98.8879 256.698C98.8895 257.25 98.6842 257.782 98.3125 258.189C97.9409 258.597 97.43 258.85 96.8806 258.899L87.9409 260.014C87.8682 260.021 87.796 260.024 87.7242 260.024Z" fill="#2F2E41"/>
<path d="M62.9387 187.475C63.5962 187.069 64.1568 186.524 64.581 185.879C65.0051 185.233 65.2825 184.502 65.3936 183.737C65.5047 182.973 65.4468 182.193 65.224 181.453C65.0012 180.713 64.6188 180.031 64.104 179.455L65.926 131.313L57.0705 132.417L56.3238 179.252C55.4134 180.181 54.8754 181.412 54.8118 182.711C54.7483 184.011 55.1635 185.288 55.9788 186.302C56.7942 187.315 57.9531 187.994 59.2358 188.211C60.5185 188.427 61.836 188.165 62.9387 187.475Z" fill="#FFB8B8"/>
<path d="M68.5404 139.825L56.6484 138.473C56.3101 138.435 55.984 138.324 55.6923 138.148C55.4007 137.972 55.1504 137.736 54.9585 137.454C54.7666 137.173 54.6375 136.854 54.5801 136.518C54.5228 136.182 54.5384 135.838 54.626 135.509L57.6962 123.979C57.9026 122.249 58.7867 120.671 60.1546 119.592C61.5226 118.513 63.2626 118.02 64.9933 118.222C66.724 118.423 68.304 119.303 69.3869 120.668C70.4698 122.033 70.9672 123.772 70.77 125.503L71.1763 137.39C71.1878 137.73 71.1259 138.069 70.9946 138.383C70.8634 138.698 70.666 138.98 70.4159 139.211C70.1657 139.442 69.8687 139.616 69.5451 139.722C69.2214 139.828 68.8787 139.863 68.5404 139.825Z" fill="#2F2E41"/>
<path d="M119.767 109.52C119.707 109.785 119.668 110.055 119.65 110.327L98.5159 122.518L93.379 119.561L87.9028 126.73L96.4879 132.849C97.1814 133.344 98.0166 133.6 98.868 133.579C99.7195 133.558 100.541 133.262 101.21 132.734L123.002 115.542C123.986 115.906 125.057 115.962 126.073 115.703C127.089 115.443 128.002 114.88 128.691 114.089C129.379 113.298 129.81 112.316 129.927 111.274C130.044 110.232 129.841 109.179 129.344 108.255C128.848 107.331 128.082 106.58 127.149 106.102C126.216 105.624 125.159 105.442 124.119 105.579C123.079 105.716 122.106 106.167 121.329 106.871C120.551 107.575 120.007 108.499 119.767 109.52Z" fill="#FFB8B8"/>
<path d="M97.8093 123.096L90.979 131.948C90.7846 132.2 90.5383 132.407 90.2567 132.555C89.9751 132.703 89.665 132.789 89.3473 132.806C89.0296 132.824 88.712 132.773 88.4159 132.656C88.1198 132.54 87.8524 132.361 87.6317 132.132L79.8992 124.102C78.6155 123.101 77.7814 121.631 77.5798 120.015C77.3782 118.4 77.8257 116.77 78.8241 115.484C79.8224 114.198 81.2901 113.36 82.9052 113.155C84.5204 112.95 86.151 113.393 87.4395 114.389L97.1376 119.812C97.4153 119.967 97.6561 120.18 97.8439 120.437C98.0316 120.694 98.1618 120.988 98.2255 121.3C98.2893 121.612 98.2851 121.933 98.2133 122.243C98.1415 122.553 98.0037 122.844 97.8093 123.096Z" fill="#2F2E41"/>
<path d="M103.381 184.368L90.2683 120.497C89.645 117.461 87.8693 114.785 85.3143 113.031C82.7593 111.277 79.6238 110.582 76.5669 111.091L72.1937 111.82C70.6745 112.073 69.2201 112.623 67.9134 113.438C66.6068 114.254 65.4735 115.318 64.5783 116.572C63.1559 118.563 62.1978 120.848 61.7744 123.258C61.351 125.668 61.4731 128.142 62.1317 130.499L69.3697 156.404L63.9982 184.157C63.9382 184.465 63.9527 184.782 64.0405 185.083C64.1283 185.384 64.2868 185.66 64.5028 185.887C64.7189 186.115 64.9862 186.287 65.2824 186.39C65.5786 186.493 65.8951 186.523 66.2055 186.479C68.8948 186.094 73.3276 185.545 78.4188 185.246L81.1769 174.607L82.2988 185.077C88.5529 184.902 95.3419 185.208 100.943 186.663C101.267 186.75 101.607 186.752 101.933 186.67C102.258 186.588 102.557 186.425 102.801 186.195C103.045 185.965 103.227 185.677 103.328 185.357C103.43 185.037 103.448 184.697 103.381 184.368Z" fill="#FF9023"/>
<path d="M89.6073 84.8572C88.8861 80.6625 85.5187 77.1852 81.5073 75.7625C77.4959 74.3397 72.9726 74.8024 69.0443 76.4408C64.8514 78.1456 61.3805 81.2533 59.2244 85.2329C58.7133 85.0042 58.222 84.7337 57.7554 84.4242C55.4292 82.8759 53.5415 80.6713 51.0248 79.4574C46.5874 77.3174 41.2229 78.74 36.9044 81.1105C32.586 83.4809 28.7579 86.7558 24.1961 88.616C19.6346 90.4762 13.8139 90.5682 10.3598 87.0557C9.50974 89.5184 9.44022 92.1834 10.1607 94.6871C10.8812 97.1908 12.3566 99.4112 14.3857 101.045C16.4147 102.68 18.8985 103.648 21.4982 103.818C24.0979 103.989 26.6869 103.353 28.9119 101.997C33.9099 98.953 36.6707 92.5696 42.2767 90.8892C45.3787 89.9593 48.7098 90.7082 51.8451 91.5194C53.692 92.0506 55.5767 92.4404 57.4828 92.6853C57.5052 96.1256 58.8009 99.4356 61.12 101.977C64.9887 106.05 71.0605 107.135 76.6773 107.069L76.7947 106.95C75.075 104.375 73.7178 100.806 75.6112 98.357C77.4803 95.9393 81.1667 96.2955 84.0292 95.2257C88.0161 93.7358 90.3284 89.0519 89.6073 84.8572Z" fill="#2F2E41"/>
<path d="M111.014 271.875H27.3795C27.249 271.875 27.1239 271.823 27.0316 271.731C26.9393 271.638 26.8875 271.513 26.8875 271.383C26.8875 271.252 26.9393 271.127 27.0316 271.035C27.1239 270.943 27.249 270.891 27.3795 270.891H111.014C111.145 270.891 111.27 270.943 111.362 271.035C111.454 271.127 111.506 271.252 111.506 271.383C111.506 271.513 111.454 271.638 111.362 271.731C111.27 271.823 111.145 271.875 111.014 271.875Z" fill="#CCCCCC"/>
<path d="M456.868 271.875H373.233C373.103 271.875 372.978 271.823 372.885 271.731C372.793 271.638 372.741 271.513 372.741 271.383C372.741 271.252 372.793 271.127 372.885 271.035C372.978 270.943 373.103 270.891 373.233 270.891H456.868C456.998 270.891 457.123 270.943 457.216 271.035C457.308 271.127 457.36 271.252 457.36 271.383C457.36 271.513 457.308 271.638 457.216 271.731C457.123 271.823 456.998 271.875 456.868 271.875Z" fill="#CCCCCC"/>
</g>
<defs>
<clipPath id="clip0_133_262">
<rect width="459.13" height="259.759" fill="white" transform="translate(9.71002 12.1154)"/>
</clipPath>
</defs>
</svg>
