<svg width="299" height="277" viewBox="0 0 299 277" fill="none" xmlns="http://www.w3.org/2000/svg">
<g clip-path="url(#clip0_133_364)">
<path d="M280.831 65.8251C280.972 65.6166 284.498 69.1652 287.704 68.4349C291.698 67.5252 294.619 60.1068 292.454 56.9338C291.02 54.8339 287.455 54.7352 287.53 54.3413C287.609 53.9199 291.445 55.3326 293.532 53.6453C296.068 51.5956 295.538 45.3617 292.436 42.092C291.815 41.4378 290.785 40.3512 289.304 40.2651C286.396 40.096 284.113 43.9242 283.11 45.6068C279.92 50.9564 279.658 56.5689 279.265 56.5164C278.901 56.4678 279.867 51.771 278.116 50.8093C277.733 50.5987 277.277 50.6016 276.824 50.7063C276.939 50.4099 277.021 50.1048 277.063 49.7911C277.326 47.8131 275.754 45.7103 273.897 43.9476C275.831 45.0932 278.017 45.8877 279.951 45.3194C284.272 44.05 287.147 36.0391 284.875 31.1214C283.289 27.6867 279.243 25.872 279.377 25.6754C279.519 25.4669 283.044 29.0155 286.25 28.2852C290.244 27.3755 293.166 19.9571 291 16.7841C289.566 14.6842 286.001 14.5855 286.076 14.1916C286.155 13.7702 289.991 15.1829 292.078 13.4956C294.614 11.4459 294.084 5.21205 290.982 1.94232C290.362 1.28809 289.331 0.201452 287.85 0.115407C284.942 -0.0536481 282.66 3.7745 281.656 5.45713C278.466 10.8067 278.204 16.4192 277.811 16.3667C277.447 16.3181 278.413 11.6213 276.662 10.6596C275.566 10.0575 273.88 11.1808 273.357 11.5296C267.598 15.3661 269.194 23.7082 263.874 32.5831C262.161 35.4407 260.455 37.1471 259.015 38.4378C258.357 30.4916 260.78 24.3917 257.109 19.7713C256.718 19.2786 255.458 17.6922 254.23 17.929C252.269 18.3072 251.747 23.0739 251.386 23.0085C250.995 22.9378 252.468 17.5157 251.073 11.4454C250.634 9.53608 249.636 5.19216 246.816 4.46099C245.381 4.08871 244.066 4.8067 243.275 5.23896C239.32 7.3994 236.903 13.1701 238.687 15.8988C240.156 18.145 244.241 17.9774 244.187 18.4028C244.137 18.8005 240.714 17.8007 238.705 19.3597C235.67 21.7152 236.175 29.6722 239.698 31.7634C242.525 33.442 246.969 31.1461 247.04 31.3879C247.106 31.616 242.699 32.1021 240.136 34.8845C239.071 36.0394 238.342 37.5754 237.929 39.235C234.438 39.4974 231.45 41.9989 231.338 41.8062C231.211 41.5882 235.938 39.9508 236.67 36.7451C237.583 32.7517 232.165 26.9018 228.367 27.4773C225.853 27.8582 224.218 31.0275 223.895 30.7899C223.55 30.5356 226.487 27.6914 225.871 25.0791C225.124 21.9057 219.277 19.6795 214.986 21.0565C214.127 21.332 212.701 21.7896 211.981 23.0863C210.568 25.6331 213.027 29.3504 214.108 30.9842C217.545 36.1788 222.489 38.8484 222.271 39.1803C222.069 39.487 218.256 36.5797 216.63 37.74C215.612 38.4666 215.893 40.473 215.981 41.0962C216.94 47.9488 225.149 50.1287 230.839 58.7711C235.472 65.8087 233.495 69.6282 237.421 71.5357C239.106 72.3547 241.252 72.513 243.445 72.1187C241.747 83.4842 241.268 102.922 241.268 102.922C240.789 122.364 238.289 138.376 237.195 138.345C236.587 138.327 236.811 133.429 234.971 125.554C233.679 120.032 233.069 120.287 229.715 110.434C224.393 94.806 221.733 86.9945 221.727 86.9516C221.699 86.612 221.652 85.9262 221.458 85.2324C225.397 84.1302 229.222 81.3065 230.551 77.3437C231.614 74.1735 231.335 69.4642 228.749 67.7677C227.081 66.6731 224.504 67.1772 222.111 68.0859C223.982 66.8402 225.645 65.2149 225.972 63.2259C226.702 58.7822 220.73 52.7177 215.314 52.6317C211.531 52.5715 208.142 55.4297 208.022 55.2241C207.896 55.0062 212.622 53.3688 213.355 50.1631C214.267 46.1697 208.85 40.3198 205.051 40.8953C202.538 41.2761 200.903 44.4455 200.58 44.2079C200.235 43.9536 203.171 41.1094 202.556 38.4971C201.809 35.3236 195.962 33.0975 191.67 34.4745C190.812 34.75 189.386 35.2076 188.666 36.5043C187.253 39.0511 189.712 42.7683 190.793 44.4022C194.23 49.5968 199.174 52.2664 198.956 52.5983C198.754 52.905 194.941 49.9977 193.315 51.158C192.297 51.8846 192.578 53.891 192.665 54.5142C193.625 61.3668 201.834 63.5467 207.524 72.1891C212.157 79.2266 210.18 83.0462 214.105 84.9537C214.784 85.2838 215.54 85.5036 216.342 85.6268L216.342 85.6305C216.687 91.0039 226.367 105.444 231.755 125.976C234.439 136.205 235.907 141.785 234.85 149.556C233.806 157.259 230.907 162.459 230.96 165.892C230.964 166.213 230.992 166.509 231.051 166.796L246.962 164.707C247.069 164.399 247.153 164.083 247.219 163.758C248.431 157.913 244.01 149.03 246.257 134.703C247.925 124.072 252.496 115.327 254.627 111.253C257.246 106.243 260.339 101.531 263.68 94.2126C265.825 95.3938 268.257 96.0209 270.67 95.7176C273.987 95.3005 278.11 93.0066 278.517 89.9408C278.78 87.9628 277.208 85.86 275.351 84.0973C277.285 85.243 279.471 86.0374 281.405 85.4691C285.726 84.1997 288.601 76.1888 286.329 71.2711C284.743 67.8364 280.697 66.0217 280.831 65.8251ZM216.098 71.0636C216.086 71.0406 216.253 70.9683 216.542 70.8508C216.269 71.0039 216.11 71.0867 216.098 71.0636ZM268.991 40.129C268.735 39.9497 268.591 39.8418 268.607 39.8213C268.622 39.8008 268.76 39.9191 268.991 40.129ZM252.49 48.3308C252.775 48.2021 252.942 48.1315 252.951 48.1558C252.959 48.1802 252.789 48.2388 252.49 48.3308ZM239.413 57.6456C239.402 57.6226 239.568 57.5502 239.857 57.4328C239.585 57.5859 239.425 57.6687 239.413 57.6456ZM243.991 98.7482C243.609 98.6621 248.255 79.8674 249.017 69.8891C251.223 68.4434 253.034 66.4076 253.866 63.9257C253.881 63.8826 253.894 63.8381 253.908 63.7945C254.349 63.7333 254.788 63.6503 255.222 63.5479C253.667 67.4798 252.8 70.3349 252.8 70.3349C248.762 83.6376 244.339 98.8279 243.991 98.7482ZM261.333 92.6123C260.058 94.5678 258.564 96.9717 256.506 100.649C251.228 110.069 248.591 114.777 247.898 118.133C247.716 119.029 246.755 123.876 244.552 130.02C243.426 133.155 242.863 134.723 242.435 134.659C241.222 134.475 241.202 122.108 244.558 109.304C245.134 107.124 245.592 105.718 246.464 103.057C247.879 98.7176 255.763 74.596 261.965 59.9626L261.966 59.9606C263.111 58.8628 263.968 57.607 264.388 56.285C264.523 55.863 264.598 55.4725 264.628 55.101C266.112 55.5726 267.668 55.7625 269.216 55.5679C270.082 55.459 271.003 55.2212 271.898 54.8762C269.421 59.265 269.461 65.8375 265.328 72.7329C260.996 79.9598 256.697 79.8349 256.681 84.1992C256.67 87.0977 258.556 90.3038 261.335 92.6094L261.333 92.6123ZM270.061 79.971C270.076 79.9505 270.214 80.0688 270.445 80.2787C270.189 80.0994 270.045 79.9915 270.061 79.971Z" fill="#F2F2F2"/>
<path d="M103.671 61.1773C106.1 60.7725 108.744 63.7395 109.848 64.9787C112.796 68.2871 113.412 72.136 113.65 73.7694C117.406 99.5498 119.284 112.44 111.511 118.436C104.125 124.133 90.6222 122.605 87.9904 117.485C86.9652 115.491 87.8223 113.404 89.1783 109.407C91.6843 102.021 93.1615 94.3219 95.3555 86.8366C100.365 69.745 99.9448 61.7983 103.671 61.1773Z" fill="#2F2E41"/>
<path d="M37.3846 157.4L25.5627 179.713C22.5449 185.408 8.26492 273.149 14.6153 274.255L42.1227 275.167L53.536 275.766L65.2672 275.935L94.346 276.9L78.0118 162.627L37.3846 157.4Z" fill="#2F2E41"/>
<path d="M66.4889 91.9447L90.0099 92.895L91.9106 100.735L97.5748 105.356C99.6574 107.055 100.679 109.734 100.257 112.388L97.6126 129.008C97.6126 129.008 102.602 140.887 90.0099 148.49L77.4178 168.923L33.7021 164.408C33.7021 164.408 29.6631 163.933 32.5141 161.082C35.3652 158.231 38.9289 144.214 38.9289 144.214C38.9289 144.214 38.4538 138.036 40.1169 136.373C41.78 134.71 40.622 130.434 40.622 130.434L47.3867 105.428C48.7049 100.556 53.1259 97.1716 58.1736 97.1716H65.6751L66.4889 91.9447Z" fill="#FF9023"/>
<path d="M247.429 251.831L42.0116 196.932C37.623 195.759 34.5648 192.228 34.0304 187.717C33.4961 183.205 35.6449 179.058 39.638 176.892L123.118 131.617C125.228 130.473 127.695 130.057 130.063 130.448L268.045 153.195C270.99 153.681 273.543 155.304 275.233 157.765C276.922 160.227 277.519 163.192 276.913 166.115L260.868 243.543C260.255 246.498 258.503 248.998 255.934 250.583C254.193 251.657 252.244 252.206 250.26 252.206C249.318 252.206 248.368 252.082 247.429 251.831Z" fill="white"/>
<path d="M247.429 251.831L42.0116 196.932C37.623 195.759 34.5648 192.228 34.0304 187.717C33.4961 183.205 35.6449 179.058 39.638 176.892L123.118 131.617C125.228 130.473 127.695 130.057 130.063 130.448L268.045 153.195C270.99 153.681 273.543 155.304 275.233 157.765C276.922 160.227 277.519 163.192 276.913 166.115L260.868 243.543C260.255 246.498 258.503 248.998 255.934 250.583C254.193 251.657 252.244 252.206 250.26 252.206C249.318 252.206 248.368 252.082 247.429 251.831ZM267.86 154.314L129.878 131.567C127.757 131.217 125.548 131.589 123.659 132.614L40.1786 177.888C36.6021 179.828 34.6775 183.543 35.1561 187.583C35.6347 191.623 38.3737 194.786 42.3043 195.836L247.721 250.736C250.333 251.434 253.039 251.037 255.339 249.618C257.64 248.199 259.209 245.959 259.758 243.312L275.803 165.885C276.346 163.267 275.811 160.611 274.298 158.407C272.785 156.202 270.498 154.749 267.86 154.314Z" fill="#CCCCCC"/>
<path d="M238.017 175.629L219.698 221.854C217.922 226.336 212.936 228.629 208.378 227.06L73.7295 180.732C66.2947 178.174 65.4641 167.991 72.386 164.262L115.718 140.917C117.604 139.901 119.789 139.589 121.883 140.037L231.518 163.485C236.974 164.652 240.073 170.442 238.017 175.629Z" fill="#F2F2F2"/>
<path d="M202.744 183.296C206.943 183.296 210.347 181.595 210.347 179.495C210.347 177.396 206.943 175.694 202.744 175.694C198.545 175.694 195.142 177.396 195.142 179.495C195.142 181.595 198.545 183.296 202.744 183.296Z" fill="#FF9023"/>
<path d="M195.617 194.938C199.816 194.938 203.22 193.236 203.22 191.137C203.22 189.037 199.816 187.335 195.617 187.335C191.418 187.335 188.014 189.037 188.014 191.137C188.014 193.236 191.418 194.938 195.617 194.938Z" fill="#3F3D56"/>
<path d="M154.752 185.791C166.168 185.791 175.422 181.164 175.422 175.456C175.422 169.748 166.168 165.121 154.752 165.121C143.336 165.121 134.082 169.748 134.082 175.456C134.082 181.164 143.336 185.791 154.752 185.791Z" fill="#FF9023"/>
<path d="M118.877 174.981C119.17 174.981 119.445 174.799 119.548 174.506C119.68 174.135 119.486 173.728 119.115 173.596L104.032 168.251C103.662 168.12 103.253 168.313 103.122 168.684C102.99 169.055 103.185 169.463 103.556 169.594L118.639 174.94C118.717 174.968 118.797 174.981 118.877 174.981Z" fill="#3F3D56"/>
<path d="M122.203 172.368C122.496 172.368 122.771 172.185 122.875 171.893C123.006 171.522 122.812 171.114 122.441 170.983L107.358 165.637C106.988 165.506 106.58 165.7 106.448 166.071C106.317 166.442 106.511 166.849 106.882 166.981L121.965 172.327C122.043 172.355 122.124 172.368 122.203 172.368Z" fill="#3F3D56"/>
<path d="M125.529 169.754C125.822 169.754 126.097 169.572 126.201 169.279C126.332 168.908 126.138 168.501 125.767 168.369L110.684 163.024C110.314 162.893 109.906 163.086 109.774 163.458C109.643 163.829 109.837 164.236 110.208 164.368L125.291 169.713C125.37 169.741 125.45 169.754 125.529 169.754Z" fill="#3F3D56"/>
<path d="M128.855 167.141C129.148 167.141 129.423 166.958 129.527 166.666C129.658 166.295 129.464 165.887 129.093 165.756L114.01 160.41C113.64 160.279 113.232 160.473 113.1 160.844C112.969 161.215 113.163 161.623 113.534 161.754L128.617 167.1C128.696 167.128 128.776 167.141 128.855 167.141Z" fill="#3F3D56"/>
<path d="M132.181 164.527C132.475 164.527 132.75 164.345 132.853 164.052C132.985 163.681 132.79 163.274 132.419 163.143L117.336 157.797C116.966 157.666 116.558 157.859 116.426 158.231C116.295 158.602 116.489 159.009 116.86 159.141L131.943 164.486C132.022 164.514 132.102 164.527 132.181 164.527Z" fill="#3F3D56"/>
<path d="M135.508 161.914C135.801 161.914 136.076 161.731 136.179 161.439C136.311 161.068 136.117 160.661 135.746 160.529L120.663 155.183C120.292 155.053 119.884 155.246 119.753 155.617C119.621 155.988 119.816 156.396 120.187 156.527L135.27 161.873C135.348 161.901 135.428 161.914 135.508 161.914Z" fill="#3F3D56"/>
<path d="M138.834 159.301C139.127 159.301 139.402 159.118 139.506 158.826C139.637 158.455 139.443 158.047 139.072 157.916L123.989 152.57C123.619 152.439 123.211 152.633 123.079 153.004C122.948 153.375 123.142 153.782 123.513 153.914L138.596 159.259C138.674 159.287 138.755 159.301 138.834 159.301Z" fill="#3F3D56"/>
<path d="M87.9904 99.6663C98.75 99.6663 107.472 90.9438 107.472 80.1842C107.472 69.4246 98.75 60.7022 87.9904 60.7022C77.2308 60.7022 68.5084 69.4246 68.5084 80.1842C68.5084 90.9438 77.2308 99.6663 87.9904 99.6663Z" fill="#A0616A"/>
<path d="M92.0294 51.1988C86.5442 50.3046 83.5987 49.8245 80.6252 50.486C74.6688 51.8112 71.2137 57.1363 68.7459 60.9398C62.8447 70.0351 65.5127 73.8578 59.7177 86.599C55.5606 95.7391 53.4647 95.3614 53.0653 100.141C52.2269 110.175 60.7623 120.212 69.9339 124.138C70.5464 124.4 80.0779 128.388 82.7635 125.088C84.7324 122.669 81.2544 118.504 77.0615 107.269C69.6887 87.5137 73.1725 80.9111 74.2104 79.2339C74.8662 78.1743 76.7366 75.5404 77.7742 75.9077C78.713 76.24 77.9004 78.6505 78.7246 80.6594C80.9327 86.0415 94.3545 87.2365 104.859 83.0353C107.957 81.7963 109.858 81.0361 111.274 78.9963C116.079 72.0755 110.343 57.5718 101.295 53.337C99.237 52.3737 96.8344 51.982 92.0294 51.1988Z" fill="#2F2E41"/>
<path d="M78.1 167.273C82.8382 169.676 85.4389 174.069 83.9089 177.084C82.3789 180.1 77.2983 180.595 72.5587 178.19C70.6522 177.255 68.9973 175.878 67.7324 174.172L47.7848 163.736L52.8819 154.479L72.0055 165.751C74.1294 165.764 76.2192 166.286 78.1 167.273Z" fill="#A0616A"/>
<path d="M171.394 153.845C176.385 155.665 179.492 159.716 178.333 162.892C177.174 166.069 172.189 167.167 167.196 165.345C165.191 164.645 163.384 163.475 161.924 161.932L140.873 153.952L144.829 144.153L165.161 153.061C167.272 152.821 169.409 153.089 171.394 153.845Z" fill="#A0616A"/>
<path d="M55.4411 102.042C55.4411 102.042 51.4022 93.7266 42.1363 100.141C32.8705 106.556 10.775 133.166 10.775 133.166C10.775 133.166 -0.629108 143.144 5.78571 146.708C12.2005 150.272 58.2922 170.942 58.2922 170.942L69.9339 162.864L28.5939 141.719L52.3404 123.9L55.4411 102.042Z" fill="#FF9023"/>
<path d="M95.8308 107.031C95.8308 107.031 98.6575 102.992 103.659 107.031C108.66 111.07 123.055 134.327 123.055 134.327L158.553 148.847L153.327 159.538L110.799 144.332L92.267 119.148L95.8308 107.031Z" fill="#FF9023"/>
<path d="M93.5737 99.7851C88.1857 102.536 90.6649 106.76 90.4851 107.625C88.734 116.048 95.1351 124.772 97.6126 124.256C99.0661 123.954 99.8301 120.334 99.5133 117.604C99.1026 114.065 102.506 108.464 102.127 105.962C101.197 99.8247 106.807 99.7098 105.691 97.4092C105.036 96.0609 96.7845 98.1455 93.5737 99.7851Z" fill="#2F2E41"/>
<path d="M156.029 186.338C156.052 186.338 156.074 186.337 156.097 186.334C156.407 186.297 156.63 186.015 156.593 185.704L155.315 174.914C155.297 174.765 155.221 174.629 155.103 174.536C154.984 174.443 154.835 174.401 154.684 174.419L134.389 176.859C134.079 176.896 133.857 177.179 133.894 177.489C133.932 177.801 134.214 178.024 134.525 177.985L154.256 175.612L155.467 185.838C155.501 186.126 155.746 186.338 156.029 186.338Z" fill="white"/>
<path d="M51.5217 196.759C57.365 196.759 62.102 192.022 62.102 186.178C62.102 180.335 57.365 175.598 51.5217 175.598C45.6783 175.598 40.9413 180.335 40.9413 186.178C40.9413 192.022 45.6783 196.759 51.5217 196.759Z" fill="#FF9023"/>
<path d="M46.7145 184.528L50.1152 190.509C50.3176 190.864 50.8986 190.89 51.0941 190.509C52.4222 187.915 54.298 185.619 56.6103 183.839C56.8547 183.651 56.9787 183.354 56.8136 183.064C56.6769 182.824 56.2803 182.674 56.0381 182.861C53.5684 184.761 51.5374 187.159 50.1152 189.936H51.0941L47.6934 183.956C47.3328 183.322 46.353 183.892 46.7145 184.528Z" fill="white"/>
</g>
<defs>
<clipPath id="clip0_133_364">
<rect width="291.314" height="276.79" fill="white" transform="translate(3.82806 0.109985)"/>
</clipPath>
</defs>
</svg>
